<svg xmlns="http://www.w3.org/2000/svg" width="2051" height="1369" viewBox="0 0 2051 1369" font-family="Helvetica, Arial, sans-serif">
<rect width="2051" height="1369" fill="#f7f6f3"/>
<path d="M 862.1,248.4 L 866.1,250.9 L 870.1,253.4 L 874.1,255.8 L 878.1,258.3 L 882.1,260.8 L 886.1,263.3 L 890.1,265.8 L 894.1,268.3 L 898.1,270.9 L 902.0,273.4 L 906.0,275.9 L 910.0,278.4 L 914.0,281.0 L 917.9,283.5 L 921.9,286.1 L 925.9,288.6 L 929.9,291.1 L 933.9,293.7 L 937.8,296.2 L 941.8,298.8 L 945.8,301.3 L 949.8,303.9 L 953.7,306.4 L 957.7,308.9 L 961.7,311.5 L 965.7,314.0 L 969.7,316.6 L 973.7,319.1 L 977.7,321.6 L 981.6,324.2 L 985.6,326.7 L 989.6,329.2 L 993.7,331.7 L 997.7,334.2 L 1001.7,336.7 L 1005.7,339.2 L 1009.7,341.7 L 1013.8,344.2 L 1017.8,346.7 L 1021.9,349.2 L 1025.9,351.6 L 1030.0,354.1 L 1034.0,356.5 L 1038.1,358.9 L 1042.2,361.3 L 1046.2,363.8 L 1050.3,366.2 L 1054.4,368.6 L 1058.5,371.0 L 1062.5,373.3 L 1066.6,375.7 L 1070.7,378.1 L 1074.8,380.5 L 1078.9,382.9 L 1082.9,385.3 L 1087.0,387.6 L 1091.1,390.0 L 1095.2,392.4 L 1099.3,394.8 L 1103.4,397.1 L 1107.4,399.5 L 1111.5,401.9 L 1115.6,404.3 L 1119.7,406.6 L 1123.7,409.0 L 1127.8,411.4 L 1131.9,413.8 L 1136.0,416.1 L 1140.0,418.5 L 1144.1,420.9 L 1148.2,423.3 L 1152.2,425.7 L 1156.3,428.1 L 1160.3,430.5 L 1164.4,432.9 L 1168.4,435.3 L 1172.5,437.7 L 1176.5,440.1 L 1180.5,442.6 L 1184.5,445.0 L 1188.6,447.5 L 1192.6,449.9 L 1196.6,452.4 L 1200.5,454.8 L 1204.5,457.3 L 1208.5,459.8 L 1212.4,462.4 L 1216.3,464.9 L 1220.2,467.4 L 1224.1,470.0 L 1228.0,472.6 L 1231.8,475.3 L 1235.5,477.9 L 1239.2,480.6 L 1242.7,483.4 L 1246.0,486.2 L 1249.0,489.0 L 1251.0,491.5 L 1251.9,493.3 L 1252.3,496.5 L 1252.2,499.2 L 1251.4,502.6 L 1250.0,506.7 L 1248.5,510.1 L 1246.7,513.0 L 1244.4,515.7 L 1241.5,518.4 L 1238.1,521.1 L 1234.5,523.8 L 1230.8,526.4 L 1227.0,529.1 L 1223.1,531.7 L 1219.2,534.3 L 1215.3,536.9 L 1211.4,539.6 L 1207.4,542.3 L 1203.4,545.1 L 1199.4,548.1 L 1195.4,551.3 L 1191.8,554.4 L 1188.2,557.5 L 1184.3,561.1 L 1180.5,565.4 L 1177.2,570.5 L 1174.8,575.9 L 1173.1,581.2 L 1172.0,586.4 L 1171.3,591.6 L 1170.8,596.6 L 1170.5,601.6 L 1170.4,606.7 L 1170.8,612.4 L 1171.6,617.6 L 1172.7,622.5 L 1173.8,627.1 L 1174.8,631.4 L 1175.4,635.5 L 1175.7,639.4 L 1175.7,643.8 L 1175.6,648.2 L 1175.3,652.7 L 1174.8,657.1 L 1174.3,661.6 L 1173.6,666.0 L 1172.8,670.3 L 1171.8,674.6 L 1170.6,678.8 L 1169.3,683.1 L 1167.8,687.1 L 1166.2,690.9 L 1164.3,694.4 L 1162.1,697.8 L 1159.6,701.1 L 1156.8,704.3 L 1153.8,707.5 L 1150.6,710.5 L 1147.3,713.5 L 1143.9,716.4 L 1140.3,719.3 L 1136.8,722.0 L 1133.1,724.7 L 1129.4,727.3 L 1125.6,729.8 L 1121.8,732.2 L 1118.0,734.5 L 1114.1,736.6 L 1110.2,738.5 L 1106.2,740.3 L 1102.0,742.0 L 1097.8,743.5 L 1093.5,745.0 L 1089.2,746.3 L 1084.8,747.7 L 1080.3,748.9 L 1075.8,750.2 L 1071.2,751.4 L 1066.7,752.7 L 1062.1,753.9 L 1057.6,755.2 L 1053.1,756.4 L 1048.7,757.5 L 1044.3,758.5 L 1039.9,759.4 L 1035.5,760.1 L 1031.1,760.7 L 1026.6,761.2 L 1022.0,761.6 L 1017.4,762.0 L 1012.9,762.2 L 1008.3,762.4 L 1003.7,762.5 L 999.1,762.5 L 994.5,762.5 L 989.9,762.4 L 985.4,762.2 L 980.9,761.9 L 976.3,761.5 L 971.8,761.0 L 967.3,760.4 L 962.9,759.7 L 958.5,758.9 L 954.1,758.0 L 949.7,756.9 L 945.4,755.7 L 941.1,754.4 L 936.8,753.0 L 932.6,751.4 L 928.5,749.7 L 924.3,748.0 L 920.2,746.1 L 916.0,744.1 L 911.9,742.0 L 907.7,739.9 L 903.5,737.8 L 899.4,735.6 L 895.2,733.5 L 891.1,731.3 L 887.0,729.1 L 882.9,726.8 L 878.9,724.5 L 874.8,722.2 L 870.7,719.9 L 866.6,717.6 L 862.5,715.2 L 858.5,712.9 L 854.4,710.5 L 850.3,708.1 L 846.3,705.8 L 842.2,703.4 L 838.2,701.0 L 834.1,698.6 L 830.0,696.2 L 826.0,693.8 L 821.9,691.4 L 817.9,688.9 L 813.8,686.5 L 809.8,684.1 L 805.8,681.7 L 801.7,679.3 L 797.7,676.8 L 793.6,674.4 L 789.6,672.0 L 785.6,669.5 L 781.5,667.1 L 777.5,664.6 L 773.5,662.2 L 769.4,659.7 L 765.4,657.3 L 761.4,654.9 L 757.3,652.4 L 753.3,650.0 L 749.3,647.5 L 745.2,645.0 L 741.2,642.6 L 737.2,640.1 L 733.1,637.7 L 729.1,635.2 L 725.1,632.8 L 721.1,630.3 L 717.0,627.9 L 713.0,625.4 L 709.0,622.9 L 704.9,620.5 L 700.9,618.0 L 696.9,615.6 L 692.8,613.1 L 688.8,610.6 L 684.8,608.2 L 680.7,605.7 L 676.7,603.3 L 672.7,600.8 L 668.6,598.4 L 664.6,595.9 L 660.5,593.5 L 656.6,591.1 L 652.7,588.6 L 648.8,586.1 L 644.9,583.5 L 640.9,580.9 L 636.7,578.3 L 632.3,575.6 L 627.4,573.3 L 622.1,571.3 L 616.4,570.0 L 611.2,569.3 L 606.6,568.9 L 602.1,568.4 L 597.2,567.8 L 592.2,567.3 L 587.0,567.1 L 581.8,567.2 L 576.6,567.6 L 571.5,568.2 L 566.6,569.1 L 561.7,570.1 L 556.9,571.3 L 552.1,572.6 L 547.4,574.0 L 542.6,575.6 L 537.9,577.4 L 533.2,579.4 L 528.6,581.6 L 524.2,584.0 L 519.9,586.5 L 515.7,589.1 L 511.5,591.9 L 507.4,595.0 L 503.5,598.1 L 499.8,601.2 L 496.3,604.2 L 492.8,607.0 L 489.2,609.7 L 485.3,612.7 L 481.6,615.5 L 478.1,618.1 L 474.6,620.3 L 471.2,622.2 L 467.6,623.6 L 463.7,624.7 L 459.6,625.6 L 455.4,626.3 L 451.0,626.8 L 446.6,627.1 L 442.1,627.4 L 437.6,627.5 L 433.2,627.4 L 428.9,627.2 L 424.7,626.7 L 420.6,625.9 L 416.6,624.9 L 412.6,623.6 L 408.7,622.1 L 404.7,620.3 L 400.8,618.3 L 397.0,616.1 L 393.2,613.8 L 389.6,611.5 L 386.2,608.9 L 382.8,606.1 L 379.5,603.2 L 376.2,600.0 L 372.8,596.8 L 369.4,593.5 L 366.0,590.2 L 362.7,587.0 L 359.6,583.9 L 356.4,580.5 L 353.2,577.0 L 349.8,573.4 L 346.2,569.9 L 342.2,566.4 L 337.9,563.1 L 333.6,560.3 L 329.1,557.8 L 324.6,555.4 L 320.0,553.3 L 315.4,551.3 L 310.7,549.6 L 306.0,548.0 L 301.2,546.5 L 296.3,545.3 L 291.2,544.2 L 286.1,543.4 L 280.8,543.0 L 275.4,542.9 L 270.1,543.2 L 265.0,543.9 L 260.1,544.7 L 255.2,545.7 L 250.5,546.8 L 245.8,547.9 L 241.3,549.1 L 236.6,550.2 L 231.9,551.5 L 227.2,552.9 L 222.5,554.3 L 217.9,555.8 L 213.3,557.5 L 208.7,559.2 L 204.3,560.9 L 199.8,562.7 L 195.2,564.6 L 190.7,566.7 L 186.1,569.0 L 181.6,571.6 L 177.2,574.6 L 173.1,577.7 L 169.2,581.1 L 165.5,584.7 L 162.0,588.3 L 158.6,592.1 L 155.5,596.0 L 152.5,599.9 L 149.6,604.0 L 146.8,608.2 L 144.1,612.5 L 141.7,616.9 L 139.4,621.6 L 137.3,626.4 L 135.6,631.3 L 134.2,636.2 L 133.0,641.2 L 132.0,646.1 L 131.2,651.1 L 130.6,656.0 L 130.2,661.1 L 130.0,666.2 L 130.0,671.3 L 130.3,676.4 L 130.9,681.5 L 131.7,686.7 L 132.9,691.8 L 134.4,697.0 L 136.5,702.0 L 139.0,706.9 L 142.0,711.6 L 145.7,716.1 L 149.9,720.0 L 154.2,723.2 L 158.8,726.1 L 163.6,728.7 L 168.7,730.8 L 174.4,732.4 L 180.2,733.1 L 185.6,733.2 L 190.8,732.9 L 195.7,732.4 L 200.7,731.8 L 206.0,730.8 L 210.9,729.6 L 215.5,728.4 L 219.8,727.2 L 224.0,726.3 L 228.0,725.7 L 232.5,725.3 L 236.9,725.0 L 241.3,724.9 L 245.8,724.9 L 250.2,725.1 L 254.7,725.5 L 259.2,725.9 L 263.6,726.5 L 268.0,727.2 L 272.5,728.0 L 277.0,729.0 L 281.5,729.9 L 286.0,731.0 L 290.6,732.0 L 295.2,733.1 L 299.8,734.2 L 304.4,735.3 L 309.0,736.4 L 313.7,737.5 L 318.3,738.5 L 323.0,739.5 L 327.6,740.5 L 332.1,741.5 L 336.7,742.5 L 341.3,743.6 L 345.8,744.6 L 350.4,745.7 L 355.0,746.8 L 359.6,747.9 L 364.2,749.0 L 368.8,750.1 L 373.4,751.2 L 378.0,752.3 L 382.6,753.4 L 387.3,754.4 L 391.9,755.5 L 396.6,756.5 L 401.3,757.5 L 405.9,758.4 L 410.6,759.3 L 415.4,760.2 L 420.1,761.0 L 424.8,761.8 L 429.6,762.5 L 434.4,763.2 L 439.2,763.8 L 444.0,764.3 L 448.9,764.7 L 453.7,765.1 L 458.5,765.4 L 463.4,765.6 L 468.2,765.8 L 473.0,765.8 L 477.8,765.9 L 482.7,765.8 L 487.5,765.8 L 492.2,765.6 L 497.0,765.5 L 501.8,765.3 L 506.6,765.0 L 511.3,764.8 L 516.1,764.5 L 520.8,764.2 L 525.5,763.9 L 530.3,763.6 L 535.0,763.3 L 539.7,763.0 L 544.4,762.7 L 549.1,762.4 L 553.7,762.1 L 558.4,761.8 L 563.1,761.6 L 567.8,761.4 L 572.4,761.2 L 577.1,761.0 L 581.9,760.8 L 586.7,760.6 L 591.4,760.3 L 596.2,760.1 L 600.9,759.8 L 605.7,759.5 L 610.4,759.1 L 615.1,758.8 L 619.8,758.5 L 624.6,758.1 L 629.3,757.7 L 634.0,757.4 L 638.7,757.0 L 643.4,756.7 L 648.1,756.3 L 652.8,755.9 L 657.5,755.6 L 662.2,755.2 L 666.9,754.9 L 671.6,754.5 L 676.3,754.2 L 681.0,753.9 L 685.7,753.5 L 690.4,753.2 L 695.1,753.0 L 699.7,752.7 L 704.4,752.4 L 709.1,752.2 L 713.8,752.0 L 718.4,751.8 L 723.1,751.7 L 727.8,751.5 L 732.4,751.5 L 737.0,751.4 L 741.7,751.4 L 746.3,751.5 L 750.9,751.6 L 755.4,751.8 L 760.0,752.1 L 764.4,752.5 L 768.9,753.1 L 773.2,753.8 L 777.6,754.6 L 781.8,755.6 L 786.1,756.8 L 790.3,758.1 L 794.5,759.6 L 798.7,761.3 L 803.0,763.0 L 807.5,764.8 L 812.0,766.6 L 816.6,768.3 L 821.2,769.9 L 825.6,771.4 L 830.0,772.9 L 834.5,774.4 L 838.9,776.0 L 843.3,777.6 L 847.7,779.2 L 852.2,780.8 L 856.6,782.4 L 861.0,784.0 L 865.5,785.6 L 869.9,787.2 L 874.4,788.8 L 878.8,790.4 L 883.3,792.0 L 887.8,793.5 L 892.2,795.1 L 896.6,796.7 L 901.1,798.3 L 905.5,799.9 L 910.0,801.4 L 914.5,803.0 L 918.9,804.6 L 923.4,806.1 L 927.9,807.7 L 932.4,809.2 L 936.9,810.7 L 941.4,812.2 L 945.8,813.7 L 950.3,815.3 L 954.7,816.8 L 959.2,818.3 L 963.7,819.8 L 968.2,821.4 L 972.7,822.9 L 977.2,824.4 L 981.8,825.8 L 986.3,827.3 L 990.9,828.7 L 995.5,830.0 L 1000.1,831.4 L 1004.8,832.6 L 1009.5,833.8 L 1014.2,834.9 L 1018.8,836.0 L 1023.5,837.0 L 1028.2,838.0 L 1032.9,839.0 L 1037.6,839.9 L 1042.3,840.8 L 1047.0,841.6 L 1051.8,842.4 L 1056.5,843.2 L 1061.2,843.9 L 1066.0,844.5 L 1070.8,845.2 L 1075.5,845.7 L 1080.3,846.2 L 1085.1,846.7 L 1089.9,847.1 L 1094.6,847.5 L 1099.4,847.9 L 1104.2,848.2 L 1109.0,848.4 L 1113.8,848.6 L 1118.6,848.8 L 1123.4,848.9 L 1128.2,849.0 L 1133.0,849.0 L 1137.8,849.0 L 1142.6,848.9 L 1147.4,848.7 L 1152.3,848.5 L 1157.1,848.3 L 1161.9,848.0 L 1166.7,847.6 L 1171.5,847.2 L 1176.2,846.7 L 1181.0,846.2 L 1185.8,845.7 L 1190.6,845.0 L 1195.3,844.4 L 1200.1,843.7 L 1204.8,842.9 L 1209.5,842.1 L 1214.3,841.3 L 1219.0,840.4 L 1223.7,839.4 L 1228.4,838.4 L 1233.1,837.4 L 1237.8,836.3 L 1242.5,835.1 L 1247.2,833.9 L 1251.8,832.6 L 1256.5,831.2 L 1261.1,829.7 L 1265.7,828.2 L 1270.3,826.6 L 1274.8,825.0 L 1279.3,823.3 L 1283.7,821.6 L 1288.1,819.9 L 1292.6,818.2 L 1296.9,816.5 L 1301.3,814.9 L 1305.7,813.2 L 1310.1,811.6 L 1314.5,810.0 L 1318.9,808.4 L 1323.4,806.9 L 1327.8,805.3 L 1332.3,803.7 L 1336.7,802.1 L 1341.2,800.5 L 1345.6,798.9 L 1350.0,797.3 L 1354.5,795.7 L 1358.9,794.1 L 1363.4,792.5 L 1367.8,790.9 L 1372.3,789.3 L 1376.7,787.7 L 1381.2,786.1 L 1385.6,784.5 L 1390.0,782.9 L 1394.5,781.3 L 1398.9,779.7 L 1403.4,778.1 L 1407.8,776.5 L 1412.2,774.9 L 1416.7,773.2 L 1421.1,771.6 L 1425.6,770.0 L 1430.0,768.4 L 1434.4,766.8 L 1438.9,765.2 L 1443.3,763.5 L 1447.7,761.9 L 1452.2,760.3 L 1456.6,758.7 L 1461.0,757.0 L 1465.5,755.4 L 1469.9,753.8 L 1474.3,752.1 L 1478.8,750.5 L 1483.2,748.9 L 1487.6,747.2 L 1492.1,745.6 L 1496.5,744.0 L 1500.9,742.3 L 1505.3,740.7 L 1509.8,739.1 L 1514.2,737.4 L 1518.6,735.8 L 1523.1,734.1 L 1527.5,732.5 L 1531.9,730.8 L 1536.4,729.2 L 1540.8,727.5 L 1545.2,725.8 L 1549.6,724.1 L 1554.1,722.4 L 1558.5,720.7 L 1562.9,719.0 L 1567.3,717.2 L 1571.8,715.4 L 1576.2,713.6 L 1580.5,711.8 L 1584.9,710.0 L 1589.3,708.2 L 1593.7,706.3 L 1598.1,704.4 L 1602.5,702.5 L 1606.9,700.5 L 1611.2,698.5 L 1615.5,696.5 L 1619.8,694.4 L 1624.1,692.3 L 1628.4,690.3 L 1632.6,688.2 L 1636.9,686.0 L 1641.1,683.9 L 1645.3,681.8 L 1649.6,679.6 L 1653.8,677.5 L 1658.0,675.3 L 1662.2,673.2 L 1666.4,671.0 L 1670.6,668.8 L 1674.8,666.6 L 1679.0,664.4 L 1683.2,662.2 L 1687.4,660.0 L 1691.6,657.8 L 1695.7,655.5 L 1699.9,653.3 L 1704.1,651.0 L 1708.3,648.8 L 1712.4,646.5 L 1716.6,644.2 L 1720.7,641.9 L 1724.9,639.6 L 1729.0,637.3 L 1733.2,635.0 L 1737.3,632.6 L 1741.4,630.2 L 1745.5,627.9 L 1749.5,625.5 L 1753.6,623.2 L 1757.7,620.8 L 1761.8,618.4 L 1766.0,616.0 L 1770.1,613.6 L 1774.2,611.1 L 1778.3,608.6 L 1782.3,606.1 L 1786.4,603.4 L 1790.5,600.7 L 1794.5,597.8 L 1798.5,594.8 L 1802.5,591.4 L 1806.2,588.0 L 1809.8,584.3 L 1813.4,580.1 L 1816.8,574.7 L 1818.9,567.4 L 1818.3,559.9 L 1816.2,554.0 L 1813.5,549.0 L 1809.6,544.0 L 1805.4,540.1 L 1801.4,536.9 L 1797.2,533.8 L 1792.9,531.1 L 1788.6,528.6 L 1784.4,526.2 L 1780.3,524.0 L 1776.3,521.7 L 1772.5,519.4 L 1768.7,516.9 L 1764.6,514.3 L 1760.8,511.8 L 1757.3,509.4 L 1754.3,507.0 L 1751.9,504.4 L 1749.7,501.3 L 1747.6,497.8 L 1745.9,494.1 L 1744.3,490.2 L 1743.0,486.2 L 1742.0,482.2 L 1741.2,478.2 L 1740.8,474.1 L 1740.7,470.0 L 1740.8,465.8 L 1741.2,461.4 L 1741.7,457.1 L 1742.5,452.9 L 1743.5,448.8 L 1744.7,445.0 L 1746.2,441.7 L 1748.1,438.8 L 1750.5,435.9 L 1753.3,433.2 L 1756.5,430.7 L 1759.9,428.3 L 1763.4,426.3 L 1766.8,424.8 L 1770.4,423.7 L 1774.2,422.9 L 1778.0,422.6 L 1782.1,422.6 L 1786.5,422.8 L 1791.0,423.2 L 1795.6,423.6 L 1800.3,424.2 L 1805.0,424.7 L 1809.7,425.2 L 1814.6,425.7 L 1819.5,426.0 L 1824.7,426.2 L 1829.8,426.1 L 1834.6,425.8 L 1839.6,425.5 L 1844.6,424.9 L 1849.9,424.0 L 1855.3,422.6 L 1860.9,420.4 L 1866.0,417.2 L 1870.0,414.0 L 1873.7,411.1 L 1877.6,407.9 L 1881.4,404.5 L 1885.0,400.8 L 1888.5,397.0 L 1891.7,392.9 L 1894.6,388.9 L 1897.4,384.9 L 1900.1,380.9 L 1902.8,376.8 L 1905.3,372.7 L 1907.8,368.5 L 1910.3,364.3 L 1912.6,360.0 L 1914.9,355.6 L 1917.1,351.0 L 1919.1,346.0 L 1920.7,340.1 L 1921.1,333.5 L 1919.0,325.6 L 1912.0,318.8 L 1906.0,316.8 L 1902.0,315.7 L 1898.9,314.2 L 1895.1,312.1 L 1892.6,310.3 L 1891.8,309.3 L 1891.3,307.4 L 1891.3,304.0 L 1891.7,299.9 L 1892.3,295.4 L 1893.1,291.5 L 1894.3,287.3 L 1895.6,283.0 L 1897.1,278.7 L 1898.6,274.3 L 1900.2,269.9 L 1901.8,265.5 L 1903.4,261.0 L 1905.0,256.6 L 1906.6,252.1 L 1908.2,247.6 L 1909.8,243.0 L 1911.3,238.4 L 1912.7,233.6 L 1914.0,228.5 L 1914.8,222.7 L 1914.9,217.0 L 1913.5,210.0 L 1910.1,203.7 L 1905.1,198.8 L 1899.6,195.5 L 1894.1,193.4 L 1888.6,192.1 L 1883.4,191.3 L 1878.4,190.9 L 1873.5,190.6 L 1868.6,190.3 L 1863.9,190.2 L 1859.2,190.0 L 1854.5,189.8 L 1849.8,189.6 L 1845.2,189.4 L 1840.5,189.1 L 1835.8,188.8 L 1831.1,188.6 L 1826.3,188.3 L 1821.6,188.0 L 1816.9,187.8 L 1812.2,187.6 L 1807.4,187.3 L 1802.7,187.1 L 1798.0,186.9 L 1793.2,186.7 L 1788.5,186.5 L 1783.8,186.3 L 1779.1,186.1 L 1774.4,185.9 L 1769.6,185.7 L 1764.9,185.5 L 1760.2,185.3 L 1755.5,185.1 L 1750.8,184.9 L 1746.0,184.7 L 1741.3,184.5 L 1736.6,184.3 L 1731.9,184.2 L 1727.2,184.0 L 1722.4,183.8 L 1717.7,183.6 L 1713.0,183.5 L 1708.3,183.3 L 1703.6,183.1 L 1698.8,183.0 L 1694.1,182.8 L 1689.4,182.6 L 1684.7,182.5 L 1680.0,182.3 L 1675.2,182.1 L 1670.5,182.0 L 1665.8,181.8 L 1661.1,181.6 L 1656.4,181.5 L 1651.7,181.3 L 1646.9,181.1 L 1642.2,181.0 L 1637.5,180.8 L 1632.8,180.7 L 1628.1,180.5 L 1623.3,180.4 L 1618.6,180.2 L 1613.9,180.0 L 1609.2,179.9 L 1604.5,179.7 L 1599.7,179.6 L 1595.0,179.4 L 1590.3,179.3 L 1585.6,179.1 L 1580.9,179.0 L 1576.2,178.8 L 1571.4,178.6 L 1566.7,178.5 L 1562.0,178.3 L 1557.3,178.2 L 1552.6,178.0 L 1547.8,177.9 L 1543.1,177.7 L 1538.4,177.6 L 1533.7,177.4 L 1529.0,177.3 L 1524.3,177.1 L 1519.5,177.0 L 1514.8,176.8 L 1510.1,176.7 L 1505.4,176.5 L 1500.7,176.4 L 1495.9,176.2 L 1491.2,176.1 L 1486.5,175.9 L 1481.8,175.8 L 1477.1,175.6 L 1472.4,175.5 L 1467.6,175.3 L 1462.9,175.2 L 1458.2,175.0 L 1453.5,174.9 L 1448.8,174.7 L 1444.0,174.6 L 1439.3,174.4 L 1434.6,174.3 L 1429.9,174.1 L 1425.2,174.0 L 1420.5,173.8 L 1415.7,173.7 L 1411.0,173.5 L 1406.3,173.4 L 1401.6,173.2 L 1396.9,173.1 L 1392.1,172.9 L 1387.4,172.8 L 1382.7,172.6 L 1378.0,172.5 L 1373.3,172.3 L 1368.6,172.2 L 1363.8,172.0 L 1359.1,171.9 L 1354.4,171.7 L 1349.7,171.6 L 1345.0,171.4 L 1340.2,171.3 L 1335.5,171.1 L 1330.8,171.0 L 1326.1,170.8 L 1321.4,170.7 L 1316.7,170.5 L 1311.9,170.4 L 1307.2,170.2 L 1302.5,170.1 L 1297.8,169.9 L 1293.1,169.8 L 1288.4,169.6 L 1283.6,169.5 L 1278.9,169.3 L 1274.2,169.2 L 1269.5,169.0 L 1264.8,168.9 L 1260.0,168.7 L 1255.3,168.6 L 1250.6,168.4 L 1245.9,168.2 L 1241.2,168.1 L 1236.5,167.9 L 1231.7,167.8 L 1227.0,167.6 L 1222.3,167.5 L 1217.6,167.3 L 1212.9,167.2 L 1208.2,167.0 L 1203.4,166.8 L 1198.7,166.7 L 1194.0,166.5 L 1189.3,166.4 L 1184.6,166.2 L 1179.9,166.0 L 1175.1,165.9 L 1170.4,165.7 L 1165.7,165.6 L 1161.0,165.4 L 1156.3,165.2 L 1151.6,165.1 L 1146.8,164.9 L 1142.1,164.7 L 1137.4,164.6 L 1132.7,164.4 L 1128.0,164.2 L 1123.3,164.1 L 1118.5,163.9 L 1113.8,163.7 L 1109.1,163.6 L 1104.4,163.4 L 1099.7,163.2 L 1095.0,163.1 L 1090.2,162.9 L 1085.5,162.7 L 1080.8,162.5 L 1076.1,162.4 L 1071.4,162.2 L 1066.7,162.0 L 1062.0,161.8 L 1057.2,161.7 L 1052.5,161.5 L 1047.8,161.3 L 1043.1,161.1 L 1038.4,160.9 L 1033.7,160.7 L 1028.9,160.6 L 1024.2,160.4 L 1019.5,160.2 L 1014.8,160.0 L 1010.1,159.8 L 1005.4,159.6 L 1000.7,159.4 L 996.0,159.2 L 991.3,159.0 L 986.6,158.8 L 981.8,158.5 L 977.1,158.3 L 972.4,158.1 L 967.7,157.9 L 963.0,157.7 L 958.3,157.4 L 953.6,157.2 L 948.9,157.0 L 944.1,156.8 L 939.4,156.5 L 934.7,156.3 L 930.0,156.1 L 925.3,155.8 L 920.6,155.6 L 915.9,155.3 L 911.2,155.1 L 906.5,154.8 L 901.7,154.6 L 897.0,154.4 L 892.3,154.1 L 887.6,153.9 L 882.9,153.6 L 878.2,153.4 L 873.5,153.1 L 868.8,152.8 L 864.1,152.6 L 859.3,152.3 L 854.6,152.1 L 849.9,151.8 L 845.2,151.6 L 840.5,151.3 L 835.8,151.0 L 831.1,150.8 L 826.4,150.5 L 821.6,150.3 L 816.9,150.0 L 812.2,149.7 L 807.5,149.5 L 802.8,149.2 L 798.1,148.9 L 793.4,148.7 L 788.7,148.4 L 783.9,148.1 L 779.2,147.9 L 774.5,147.6 L 769.8,147.3 L 765.1,147.1 L 760.4,146.8 L 755.7,146.5 L 751.0,146.3 L 746.2,146.0 L 741.5,145.7 L 736.8,145.5 L 732.1,145.2 L 727.4,144.9 L 722.7,144.7 L 718.0,144.4 L 713.3,144.1 L 708.5,143.8 L 703.8,143.6 L 699.1,143.3 L 694.4,143.0 L 689.7,142.8 L 685.0,142.5 L 680.3,142.2 L 675.6,142.0 L 670.8,141.7 L 666.1,141.4 L 661.4,141.2 L 656.7,140.9 L 652.0,140.6 L 647.3,140.4 L 642.6,140.1 L 637.8,139.9 L 633.1,139.6 L 628.4,139.3 L 623.7,139.1 L 619.0,138.8 L 614.3,138.6 L 609.6,138.3 L 604.8,138.0 L 600.1,137.8 L 595.4,137.5 L 590.7,137.3 L 586.0,137.0 L 581.3,136.8 L 576.5,136.5 L 571.8,136.3 L 567.1,136.0 L 562.4,135.8 L 557.7,135.6 L 553.0,135.3 L 548.2,135.1 L 543.5,134.8 L 538.8,134.6 L 534.1,134.4 L 529.4,134.1 L 524.6,133.9 L 519.9,133.7 L 515.2,133.5 L 510.5,133.3 L 505.8,133.0 L 501.0,132.8 L 496.3,132.6 L 491.6,132.4 L 486.9,132.2 L 482.1,132.0 L 477.4,131.8 L 472.7,131.7 L 468.0,131.5 L 463.2,131.3 L 458.5,131.2 L 453.8,131.0 L 449.0,130.8 L 444.3,130.7 L 439.6,130.6 L 434.8,130.4 L 430.1,130.3 L 425.4,130.2 L 420.6,130.2 L 415.9,130.1 L 411.1,130.0 L 406.3,130.0 L 401.6,130.0 L 396.8,130.0 L 392.0,130.1 L 387.2,130.2 L 382.4,130.4 L 377.5,130.6 L 372.5,131.0 L 367.8,131.5 L 362.8,132.1 L 357.1,133.2 L 350.1,136.5 L 344.7,142.7 L 342.3,149.3 L 341.5,155.3 L 341.6,161.2 L 342.6,167.1 L 344.3,172.6 L 346.7,177.8 L 349.6,182.7 L 353.4,187.3 L 357.3,191.1 L 361.3,194.4 L 365.1,197.4 L 368.9,200.2 L 372.5,203.0 L 376.1,206.0 L 379.8,209.0 L 383.5,211.9 L 387.3,214.9 L 391.1,217.8 L 394.9,220.8 L 398.8,223.6 L 402.8,226.4 L 406.9,229.2 L 411.0,231.8 L 415.1,234.4 L 419.2,236.9 L 423.4,239.4 L 427.6,241.8 L 431.9,244.1 L 436.3,246.3 L 440.8,248.5 L 445.3,250.5 L 450.0,252.3 L 454.7,254.0 L 459.4,255.6 L 464.3,257.0 L 469.2,258.1 L 474.3,259.1 L 479.4,259.8 L 484.6,260.2 L 489.9,260.3 L 495.1,260.0 L 500.2,259.5 L 505.2,258.7 L 510.1,257.8 L 515.1,256.6 L 520.0,255.2 L 524.8,253.6 L 529.4,251.9 L 533.9,250.1 L 538.4,248.3 L 542.8,246.5 L 547.2,244.7 L 551.7,242.7 L 556.1,240.7 L 560.4,238.6 L 564.7,236.5 L 569.0,234.4 L 573.2,232.3 L 577.5,230.2 L 581.7,228.1 L 585.9,226.0 L 590.1,223.9 L 594.3,221.8 L 598.5,219.8 L 602.7,217.8 L 606.9,215.8 L 611.1,213.9 L 615.3,212.1 L 619.5,210.4 L 623.7,208.9 L 628.0,207.4 L 632.3,205.9 L 636.7,204.6 L 641.1,203.3 L 645.4,202.2 L 649.9,201.1 L 654.3,200.2 L 658.8,199.3 L 663.4,198.5 L 667.9,197.7 L 672.5,197.0 L 677.0,196.3 L 681.6,195.7 L 686.2,195.2 L 690.7,194.7 L 695.3,194.4 L 699.8,194.1 L 704.4,193.9 L 708.9,193.8 L 713.4,193.8 L 718.0,193.9 L 722.5,194.1 L 727.1,194.4 L 731.6,194.8 L 736.2,195.2 L 740.7,195.8 L 745.2,196.4 L 749.7,197.2 L 754.1,198.0 L 758.5,199.0 L 762.9,200.0 L 767.3,201.2 L 771.7,202.4 L 776.0,203.8 L 780.2,205.3 L 784.4,206.8 L 788.6,208.6 L 792.8,210.4 L 796.9,212.3 L 801.1,214.3 L 805.2,216.3 L 809.4,218.4 L 813.6,220.5 L 817.7,222.6 L 821.8,224.8 L 825.8,227.1 L 829.9,229.3 L 833.9,231.6 L 838.0,234.0 L 842.0,236.3 L 846.1,238.7 L 850.1,241.1 L 854.1,243.5 L 858.1,246.0 Z M 866.7,231.9 L 862.7,229.4 L 858.6,227.0 L 854.5,224.5 L 850.4,222.1 L 846.3,219.7 L 842.2,217.3 L 838.0,214.9 L 833.8,212.6 L 829.6,210.3 L 825.4,208.0 L 821.1,205.8 L 816.9,203.7 L 812.6,201.5 L 808.3,199.4 L 803.9,197.3 L 799.5,195.3 L 795.0,193.3 L 790.4,191.5 L 785.8,189.7 L 781.1,188.1 L 776.4,186.6 L 771.7,185.3 L 767.0,184.0 L 762.2,182.9 L 757.4,181.8 L 752.6,180.9 L 747.7,180.1 L 742.9,179.4 L 738.0,178.8 L 733.2,178.3 L 728.3,177.9 L 723.4,177.6 L 718.6,177.4 L 713.7,177.3 L 708.7,177.3 L 703.8,177.4 L 699.0,177.6 L 694.1,177.9 L 689.2,178.3 L 684.4,178.8 L 679.6,179.3 L 674.8,179.9 L 670.0,180.6 L 665.2,181.4 L 660.5,182.2 L 655.7,183.1 L 651.0,184.0 L 646.2,185.0 L 641.4,186.2 L 636.7,187.4 L 632.0,188.8 L 627.3,190.2 L 622.7,191.7 L 618.1,193.3 L 613.5,195.0 L 608.9,196.9 L 604.4,198.8 L 600.0,200.8 L 595.6,202.8 L 591.3,204.9 L 587.0,207.0 L 582.8,209.1 L 578.5,211.2 L 574.3,213.3 L 570.1,215.4 L 565.8,217.5 L 561.6,219.6 L 557.4,221.7 L 553.3,223.7 L 549.1,225.7 L 544.9,227.7 L 540.7,229.5 L 536.4,231.3 L 532.1,233.0 L 527.8,234.8 L 523.5,236.5 L 519.3,238.0 L 515.1,239.4 L 510.9,240.6 L 506.7,241.6 L 502.4,242.5 L 498.1,243.1 L 493.8,243.5 L 489.6,243.7 L 485.4,243.7 L 481.2,243.4 L 477.0,242.8 L 472.7,242.0 L 468.5,241.0 L 464.3,239.8 L 460.0,238.4 L 455.8,236.9 L 451.7,235.3 L 447.7,233.5 L 443.6,231.5 L 439.6,229.5 L 435.6,227.3 L 431.6,225.1 L 427.7,222.7 L 423.7,220.3 L 419.8,217.9 L 416.0,215.4 L 412.2,212.9 L 408.5,210.2 L 404.8,207.5 L 401.1,204.7 L 397.4,201.9 L 393.8,199.0 L 390.2,196.1 L 386.5,193.1 L 382.8,190.1 L 378.9,187.1 L 375.2,184.3 L 371.6,181.5 L 368.3,178.7 L 365.4,176.0 L 363.2,173.3 L 361.3,170.1 L 359.7,166.7 L 358.6,163.2 L 358.0,159.8 L 358.0,156.2 L 358.4,152.9 L 359.2,150.6 L 360.0,149.7 L 361.5,149.1 L 365.0,148.5 L 369.4,148.0 L 374.0,147.5 L 378.5,147.1 L 383.1,146.9 L 387.7,146.7 L 392.3,146.6 L 396.9,146.5 L 401.6,146.5 L 406.3,146.5 L 411.0,146.6 L 415.6,146.6 L 420.3,146.7 L 425.0,146.8 L 429.7,146.9 L 434.4,147.0 L 439.1,147.1 L 443.8,147.2 L 448.5,147.4 L 453.2,147.5 L 457.9,147.7 L 462.6,147.8 L 467.4,148.0 L 472.1,148.2 L 476.8,148.4 L 481.5,148.5 L 486.2,148.7 L 490.9,148.9 L 495.6,149.1 L 500.3,149.3 L 505.0,149.6 L 509.7,149.8 L 514.4,150.0 L 519.1,150.2 L 523.9,150.4 L 528.6,150.6 L 533.3,150.9 L 538.0,151.1 L 542.7,151.3 L 547.4,151.6 L 552.1,151.8 L 556.8,152.1 L 561.5,152.3 L 566.3,152.5 L 571.0,152.8 L 575.7,153.0 L 580.4,153.3 L 585.1,153.5 L 589.8,153.8 L 594.5,154.0 L 599.2,154.3 L 603.9,154.5 L 608.7,154.8 L 613.4,155.1 L 618.1,155.3 L 622.8,155.6 L 627.5,155.8 L 632.2,156.1 L 636.9,156.4 L 641.6,156.6 L 646.3,156.9 L 651.1,157.1 L 655.8,157.4 L 660.5,157.7 L 665.2,157.9 L 669.9,158.2 L 674.6,158.5 L 679.3,158.7 L 684.0,159.0 L 688.8,159.3 L 693.5,159.5 L 698.2,159.8 L 702.9,160.1 L 707.6,160.3 L 712.3,160.6 L 717.0,160.9 L 721.7,161.1 L 726.5,161.4 L 731.2,161.7 L 735.9,162.0 L 740.6,162.2 L 745.3,162.5 L 750.0,162.8 L 754.7,163.0 L 759.4,163.3 L 764.2,163.6 L 768.9,163.8 L 773.6,164.1 L 778.3,164.4 L 783.0,164.6 L 787.7,164.9 L 792.4,165.2 L 797.2,165.4 L 801.9,165.7 L 806.6,166.0 L 811.3,166.2 L 816.0,166.5 L 820.7,166.8 L 825.4,167.0 L 830.2,167.3 L 834.9,167.5 L 839.6,167.8 L 844.3,168.1 L 849.0,168.3 L 853.7,168.6 L 858.4,168.8 L 863.2,169.1 L 867.9,169.3 L 872.6,169.6 L 877.3,169.9 L 882.0,170.1 L 886.7,170.4 L 891.5,170.6 L 896.2,170.9 L 900.9,171.1 L 905.6,171.3 L 910.3,171.6 L 915.0,171.8 L 919.8,172.1 L 924.5,172.3 L 929.2,172.6 L 933.9,172.8 L 938.6,173.0 L 943.3,173.3 L 948.1,173.5 L 952.8,173.7 L 957.5,173.9 L 962.2,174.2 L 966.9,174.4 L 971.7,174.6 L 976.4,174.8 L 981.1,175.0 L 985.8,175.3 L 990.5,175.5 L 995.3,175.7 L 1000.0,175.9 L 1004.7,176.1 L 1009.4,176.3 L 1014.1,176.5 L 1018.9,176.7 L 1023.5,176.9 L 1028.3,177.1 L 1033.0,177.2 L 1037.7,177.4 L 1042.5,177.6 L 1047.2,177.8 L 1051.9,178.0 L 1056.6,178.2 L 1061.3,178.3 L 1066.0,178.5 L 1070.8,178.7 L 1075.5,178.9 L 1080.2,179.0 L 1084.9,179.2 L 1089.6,179.4 L 1094.4,179.6 L 1099.1,179.7 L 1103.8,179.9 L 1108.5,180.1 L 1113.2,180.3 L 1118.0,180.4 L 1122.7,180.6 L 1127.4,180.8 L 1132.1,180.9 L 1136.8,181.1 L 1141.5,181.3 L 1146.3,181.4 L 1151.0,181.6 L 1155.7,181.7 L 1160.4,181.9 L 1165.1,182.1 L 1169.9,182.2 L 1174.6,182.4 L 1179.3,182.6 L 1184.0,182.7 L 1188.7,182.9 L 1193.5,183.0 L 1198.2,183.2 L 1202.9,183.3 L 1207.6,183.5 L 1212.3,183.7 L 1217.0,183.8 L 1221.8,184.0 L 1226.5,184.1 L 1231.2,184.3 L 1235.9,184.4 L 1240.6,184.6 L 1245.4,184.8 L 1250.1,184.9 L 1254.8,185.1 L 1259.5,185.2 L 1264.2,185.4 L 1268.9,185.5 L 1273.7,185.7 L 1278.4,185.8 L 1283.1,186.0 L 1287.8,186.1 L 1292.5,186.3 L 1297.3,186.4 L 1302.0,186.6 L 1306.7,186.7 L 1311.4,186.9 L 1316.1,187.1 L 1320.8,187.2 L 1325.6,187.4 L 1330.3,187.5 L 1335.0,187.7 L 1339.7,187.8 L 1344.4,188.0 L 1349.2,188.1 L 1353.9,188.3 L 1358.6,188.4 L 1363.3,188.6 L 1368.0,188.7 L 1372.7,188.9 L 1377.5,189.0 L 1382.2,189.2 L 1386.9,189.3 L 1391.6,189.5 L 1396.3,189.6 L 1401.1,189.7 L 1405.8,189.9 L 1410.5,190.0 L 1415.2,190.2 L 1419.9,190.3 L 1424.6,190.5 L 1429.4,190.6 L 1434.1,190.8 L 1438.8,190.9 L 1443.5,191.1 L 1448.2,191.2 L 1453.0,191.4 L 1457.7,191.5 L 1462.4,191.7 L 1467.1,191.8 L 1471.8,192.0 L 1476.5,192.1 L 1481.3,192.3 L 1486.0,192.4 L 1490.7,192.6 L 1495.4,192.7 L 1500.1,192.9 L 1504.9,193.0 L 1509.6,193.2 L 1514.3,193.3 L 1519.0,193.5 L 1523.7,193.6 L 1528.4,193.8 L 1533.2,193.9 L 1537.9,194.1 L 1542.6,194.2 L 1547.3,194.4 L 1552.0,194.5 L 1556.7,194.7 L 1561.5,194.8 L 1566.2,195.0 L 1570.9,195.2 L 1575.6,195.3 L 1580.3,195.5 L 1585.1,195.6 L 1589.8,195.8 L 1594.5,195.9 L 1599.2,196.1 L 1603.9,196.2 L 1608.6,196.4 L 1613.4,196.5 L 1618.1,196.7 L 1622.8,196.9 L 1627.5,197.0 L 1632.2,197.2 L 1636.9,197.3 L 1641.7,197.5 L 1646.4,197.7 L 1651.1,197.8 L 1655.8,198.0 L 1660.5,198.1 L 1665.2,198.3 L 1670.0,198.5 L 1674.7,198.6 L 1679.4,198.8 L 1684.1,199.0 L 1688.8,199.1 L 1693.5,199.3 L 1698.2,199.5 L 1703.0,199.6 L 1707.7,199.8 L 1712.4,200.0 L 1717.1,200.2 L 1721.8,200.3 L 1726.5,200.5 L 1731.3,200.7 L 1736.0,200.9 L 1740.7,201.0 L 1745.4,201.2 L 1750.1,201.4 L 1754.8,201.6 L 1759.5,201.8 L 1764.2,202.0 L 1769.0,202.2 L 1773.7,202.4 L 1778.4,202.6 L 1783.1,202.8 L 1787.8,203.0 L 1792.5,203.2 L 1797.2,203.4 L 1801.9,203.6 L 1806.6,203.8 L 1811.3,204.1 L 1816.0,204.3 L 1820.7,204.5 L 1825.4,204.8 L 1830.1,205.0 L 1834.8,205.3 L 1839.5,205.6 L 1844.3,205.9 L 1849.1,206.1 L 1853.8,206.3 L 1858.6,206.5 L 1863.3,206.7 L 1868.0,206.8 L 1872.6,207.1 L 1877.1,207.3 L 1881.5,207.7 L 1885.6,208.3 L 1889.3,209.2 L 1892.6,210.5 L 1895.2,212.0 L 1896.9,213.7 L 1898.0,215.7 L 1898.4,217.9 L 1898.3,221.6 L 1897.8,225.1 L 1896.8,229.2 L 1895.5,233.5 L 1894.1,237.8 L 1892.6,242.2 L 1891.1,246.5 L 1889.5,251.0 L 1887.9,255.4 L 1886.2,259.8 L 1884.6,264.3 L 1883.0,268.8 L 1881.4,273.3 L 1879.9,277.9 L 1878.5,282.6 L 1877.1,287.5 L 1876.0,292.9 L 1875.3,297.8 L 1874.8,303.0 L 1874.9,309.1 L 1876.8,316.2 L 1881.6,322.7 L 1886.8,326.3 L 1891.3,328.8 L 1896.7,331.3 L 1901.9,332.8 L 1904.8,333.7 L 1904.4,333.3 L 1904.6,334.5 L 1904.4,337.3 L 1903.5,340.5 L 1902.0,344.3 L 1900.1,348.2 L 1898.1,352.2 L 1895.9,356.2 L 1893.6,360.1 L 1891.2,364.0 L 1888.8,367.9 L 1886.3,371.8 L 1883.8,375.6 L 1881.2,379.3 L 1878.5,383.0 L 1875.9,386.3 L 1873.0,389.5 L 1870.0,392.5 L 1866.8,395.4 L 1863.4,398.2 L 1859.7,401.2 L 1856.3,403.8 L 1853.4,405.6 L 1850.3,406.9 L 1846.5,407.8 L 1842.4,408.5 L 1838.1,409.0 L 1833.6,409.3 L 1829.1,409.6 L 1824.7,409.7 L 1820.4,409.5 L 1816.0,409.2 L 1811.4,408.8 L 1806.8,408.3 L 1802.1,407.8 L 1797.4,407.2 L 1792.6,406.7 L 1787.7,406.3 L 1782.7,406.1 L 1777.4,406.0 L 1771.7,406.6 L 1766.3,407.6 L 1760.9,409.3 L 1755.7,411.7 L 1751.0,414.4 L 1746.7,417.4 L 1742.5,420.7 L 1738.5,424.6 L 1734.8,428.9 L 1731.6,433.9 L 1729.2,439.2 L 1727.5,444.4 L 1726.3,449.5 L 1725.4,454.6 L 1724.8,459.7 L 1724.3,464.7 L 1724.2,469.9 L 1724.3,475.2 L 1724.9,480.5 L 1725.8,485.8 L 1727.1,490.9 L 1728.8,495.9 L 1730.7,500.8 L 1733.1,505.6 L 1735.8,510.2 L 1739.1,514.8 L 1743.1,519.1 L 1747.4,522.6 L 1751.7,525.6 L 1755.8,528.3 L 1759.7,530.7 L 1763.7,533.4 L 1768.0,536.0 L 1772.2,538.4 L 1776.4,540.7 L 1780.4,542.9 L 1784.3,545.2 L 1788.0,547.5 L 1791.4,550.0 L 1794.8,552.7 L 1797.5,555.3 L 1799.4,557.7 L 1801.2,561.0 L 1802.2,563.9 L 1802.5,565.8 L 1801.9,567.5 L 1800.3,570.1 L 1797.7,573.0 L 1794.7,576.1 L 1791.5,579.1 L 1788.2,581.8 L 1784.7,584.5 L 1781.1,587.1 L 1777.3,589.6 L 1773.5,592.1 L 1769.6,594.6 L 1765.6,597.0 L 1761.6,599.4 L 1757.6,601.8 L 1753.5,604.1 L 1749.5,606.5 L 1745.4,608.8 L 1741.3,611.2 L 1737.2,613.5 L 1733.1,615.9 L 1729.0,618.3 L 1725.0,620.6 L 1720.9,622.9 L 1716.8,625.2 L 1712.7,627.5 L 1708.6,629.8 L 1704.5,632.0 L 1700.4,634.3 L 1696.2,636.5 L 1692.1,638.7 L 1687.9,641.0 L 1683.8,643.2 L 1679.6,645.4 L 1675.5,647.6 L 1671.3,649.8 L 1667.2,652.0 L 1663.0,654.1 L 1658.8,656.3 L 1654.6,658.5 L 1650.4,660.6 L 1646.3,662.8 L 1642.1,664.9 L 1637.9,667.0 L 1633.7,669.2 L 1629.5,671.3 L 1625.3,673.4 L 1621.1,675.4 L 1616.9,677.5 L 1612.6,679.5 L 1608.4,681.6 L 1604.2,683.5 L 1600.0,685.5 L 1595.7,687.4 L 1591.5,689.3 L 1587.2,691.1 L 1582.9,693.0 L 1578.6,694.8 L 1574.3,696.6 L 1569.9,698.3 L 1565.6,700.1 L 1561.2,701.9 L 1556.9,703.6 L 1552.5,705.3 L 1548.1,707.0 L 1543.7,708.7 L 1539.3,710.4 L 1534.9,712.0 L 1530.5,713.7 L 1526.1,715.3 L 1521.7,717.0 L 1517.3,718.6 L 1512.9,720.3 L 1508.5,721.9 L 1504.0,723.6 L 1499.6,725.2 L 1495.2,726.8 L 1490.8,728.5 L 1486.3,730.1 L 1481.9,731.7 L 1477.5,733.4 L 1473.0,735.0 L 1468.6,736.6 L 1464.2,738.3 L 1459.8,739.9 L 1455.3,741.5 L 1450.9,743.2 L 1446.5,744.8 L 1442.1,746.4 L 1437.6,748.0 L 1433.2,749.6 L 1428.8,751.3 L 1424.3,752.9 L 1419.9,754.5 L 1415.5,756.1 L 1411.0,757.7 L 1406.6,759.3 L 1402.2,760.9 L 1397.7,762.5 L 1393.3,764.1 L 1388.9,765.8 L 1384.4,767.4 L 1380.0,769.0 L 1375.5,770.6 L 1371.1,772.2 L 1366.7,773.8 L 1362.2,775.4 L 1357.8,777.0 L 1353.3,778.6 L 1348.9,780.2 L 1344.5,781.8 L 1340.0,783.4 L 1335.6,784.9 L 1331.1,786.5 L 1326.7,788.1 L 1322.3,789.7 L 1317.8,791.3 L 1313.4,792.9 L 1308.9,794.5 L 1304.4,796.1 L 1300.0,797.8 L 1295.5,799.4 L 1291.1,801.1 L 1286.6,802.8 L 1282.2,804.5 L 1277.8,806.2 L 1273.5,807.8 L 1269.1,809.5 L 1264.7,811.0 L 1260.4,812.6 L 1256.0,814.0 L 1251.6,815.4 L 1247.3,816.7 L 1242.9,818.0 L 1238.4,819.1 L 1233.9,820.2 L 1229.4,821.3 L 1224.9,822.3 L 1220.4,823.2 L 1215.8,824.2 L 1211.3,825.0 L 1206.7,825.8 L 1202.1,826.6 L 1197.5,827.3 L 1193.0,828.0 L 1188.4,828.7 L 1183.8,829.3 L 1179.2,829.8 L 1174.6,830.3 L 1169.9,830.8 L 1165.3,831.2 L 1160.7,831.5 L 1156.1,831.8 L 1151.5,832.0 L 1146.9,832.2 L 1142.2,832.4 L 1137.6,832.5 L 1133.0,832.5 L 1128.3,832.5 L 1123.7,832.4 L 1119.1,832.3 L 1114.4,832.1 L 1109.8,831.9 L 1105.2,831.7 L 1100.5,831.4 L 1095.9,831.1 L 1091.3,830.7 L 1086.6,830.3 L 1082.0,829.8 L 1077.4,829.3 L 1072.8,828.8 L 1068.2,828.2 L 1063.6,827.5 L 1059.0,826.8 L 1054.4,826.1 L 1049.8,825.3 L 1045.3,824.5 L 1040.7,823.7 L 1036.1,822.8 L 1031.6,821.9 L 1027.0,820.9 L 1022.5,819.9 L 1018.0,818.9 L 1013.5,817.8 L 1009.0,816.6 L 1004.6,815.4 L 1000.1,814.2 L 995.7,812.9 L 991.2,811.5 L 986.8,810.1 L 982.3,808.7 L 977.9,807.2 L 973.4,805.7 L 969.0,804.2 L 964.5,802.7 L 960.1,801.2 L 955.6,799.6 L 951.1,798.1 L 946.6,796.6 L 942.1,795.1 L 937.7,793.6 L 933.3,792.1 L 928.8,790.5 L 924.4,789.0 L 920.0,787.4 L 915.5,785.9 L 911.1,784.3 L 906.6,782.7 L 902.2,781.1 L 897.7,779.5 L 893.3,778.0 L 888.8,776.4 L 884.4,774.8 L 880.0,773.2 L 875.5,771.6 L 871.1,770.0 L 866.7,768.4 L 862.2,766.8 L 857.8,765.2 L 853.3,763.6 L 848.9,762.0 L 844.4,760.4 L 839.9,758.8 L 835.4,757.3 L 831.0,755.7 L 826.4,754.2 L 822.1,752.7 L 817.9,751.1 L 813.6,749.5 L 809.3,747.7 L 804.8,745.9 L 800.3,744.1 L 795.6,742.5 L 790.8,740.9 L 785.9,739.6 L 781.0,738.4 L 776.1,737.5 L 771.1,736.7 L 766.2,736.1 L 761.2,735.7 L 756.3,735.3 L 751.5,735.1 L 746.6,735.0 L 741.8,734.9 L 737.0,734.9 L 732.2,734.9 L 727.4,735.0 L 722.6,735.2 L 717.8,735.3 L 713.1,735.5 L 708.3,735.7 L 703.6,735.9 L 698.8,736.2 L 694.1,736.5 L 689.3,736.8 L 684.6,737.1 L 679.9,737.4 L 675.1,737.7 L 670.4,738.0 L 665.7,738.4 L 661.0,738.7 L 656.3,739.1 L 651.6,739.5 L 646.8,739.8 L 642.1,740.2 L 637.4,740.6 L 632.7,740.9 L 628.0,741.3 L 623.3,741.6 L 618.6,742.0 L 613.9,742.3 L 609.3,742.7 L 604.6,743.0 L 599.9,743.3 L 595.2,743.6 L 590.5,743.8 L 585.9,744.1 L 581.2,744.3 L 576.5,744.5 L 571.8,744.7 L 567.0,744.9 L 562.3,745.1 L 557.5,745.4 L 552.8,745.6 L 548.0,745.9 L 543.3,746.2 L 538.6,746.5 L 533.9,746.8 L 529.2,747.1 L 524.5,747.4 L 519.8,747.7 L 515.1,748.0 L 510.4,748.3 L 505.7,748.5 L 501.1,748.8 L 496.4,749.0 L 491.8,749.1 L 487.1,749.2 L 482.5,749.3 L 477.8,749.4 L 473.2,749.3 L 468.6,749.2 L 464.0,749.1 L 459.4,748.9 L 454.8,748.6 L 450.2,748.3 L 445.7,747.9 L 441.1,747.4 L 436.5,746.8 L 432.0,746.2 L 427.4,745.5 L 422.8,744.7 L 418.3,743.9 L 413.7,743.1 L 409.1,742.2 L 404.6,741.3 L 400.0,740.3 L 395.4,739.3 L 390.9,738.3 L 386.3,737.3 L 381.7,736.2 L 377.2,735.2 L 372.6,734.1 L 368.0,733.0 L 363.4,731.9 L 358.8,730.8 L 354.2,729.7 L 349.6,728.6 L 345.0,727.5 L 340.4,726.4 L 335.7,725.3 L 331.0,724.3 L 326.4,723.4 L 321.9,722.4 L 317.3,721.4 L 312.7,720.3 L 308.2,719.3 L 303.6,718.2 L 299.0,717.1 L 294.4,716.0 L 289.8,714.9 L 285.1,713.8 L 280.4,712.8 L 275.7,711.8 L 270.9,710.9 L 266.0,710.1 L 261.0,709.5 L 256.1,709.0 L 251.2,708.6 L 246.2,708.4 L 241.2,708.4 L 236.2,708.5 L 231.2,708.8 L 226.3,709.3 L 220.9,710.1 L 215.9,711.2 L 211.1,712.4 L 206.6,713.7 L 202.3,714.7 L 198.3,715.5 L 194.0,716.0 L 189.5,716.4 L 185.2,716.7 L 181.2,716.6 L 177.6,716.1 L 174.2,715.2 L 170.6,713.7 L 167.1,711.9 L 163.7,709.7 L 160.4,707.2 L 157.7,704.7 L 155.4,701.9 L 153.3,698.7 L 151.5,695.2 L 150.0,691.5 L 148.8,687.6 L 147.9,683.5 L 147.2,679.4 L 146.8,675.1 L 146.5,670.8 L 146.5,666.5 L 146.7,662.1 L 147.1,657.8 L 147.6,653.4 L 148.3,649.0 L 149.2,644.7 L 150.2,640.5 L 151.4,636.3 L 152.8,632.3 L 154.4,628.4 L 156.3,624.6 L 158.4,620.8 L 160.7,617.1 L 163.1,613.4 L 165.7,609.8 L 168.4,606.2 L 171.3,602.8 L 174.2,599.5 L 177.2,596.3 L 180.3,593.3 L 183.5,590.6 L 186.9,588.0 L 190.4,585.6 L 194.0,583.5 L 197.8,581.6 L 201.8,579.7 L 206.0,578.0 L 210.3,576.3 L 214.7,574.6 L 218.9,573.0 L 223.2,571.5 L 227.6,570.0 L 231.9,568.7 L 236.3,567.4 L 240.7,566.2 L 245.2,565.1 L 249.8,564.0 L 254.3,562.9 L 258.8,561.9 L 263.2,560.9 L 267.5,560.2 L 271.7,559.7 L 275.9,559.4 L 279.9,559.5 L 284.1,559.8 L 288.3,560.5 L 292.5,561.3 L 296.7,562.4 L 300.9,563.7 L 305.2,565.1 L 309.3,566.7 L 313.4,568.4 L 317.3,570.2 L 321.2,572.2 L 324.9,574.4 L 328.5,576.7 L 331.7,579.2 L 334.9,581.9 L 338.0,585.0 L 341.1,588.2 L 344.3,591.7 L 347.6,595.2 L 351.0,598.8 L 354.6,602.2 L 357.9,605.4 L 361.3,608.7 L 364.8,612.0 L 368.3,615.3 L 372.0,618.6 L 375.9,621.9 L 380.1,625.0 L 384.4,627.8 L 388.6,630.4 L 393.0,632.9 L 397.6,635.2 L 402.2,637.3 L 407.0,639.2 L 412.0,640.8 L 417.1,642.1 L 422.3,643.0 L 427.5,643.6 L 432.7,643.9 L 437.7,644.0 L 442.7,643.9 L 447.6,643.6 L 452.6,643.2 L 457.6,642.7 L 462.7,641.9 L 467.8,640.7 L 473.0,639.2 L 478.2,637.1 L 483.1,634.5 L 487.5,631.7 L 491.6,628.7 L 495.4,625.8 L 499.0,623.0 L 503.0,620.1 L 506.8,616.9 L 510.5,613.8 L 514.1,610.8 L 517.5,608.0 L 521.0,605.5 L 524.7,603.0 L 528.5,600.6 L 532.3,598.4 L 536.1,596.3 L 540.1,594.4 L 544.0,592.7 L 548.1,591.2 L 552.4,589.7 L 556.6,588.5 L 561.0,587.3 L 565.4,586.3 L 569.7,585.3 L 574.1,584.6 L 578.4,584.0 L 582.6,583.7 L 586.8,583.6 L 591.0,583.8 L 595.4,584.2 L 600.0,584.7 L 604.8,585.3 L 609.6,585.8 L 613.7,586.3 L 617.3,587.1 L 620.8,588.4 L 624.4,590.2 L 628.1,592.3 L 631.9,594.7 L 635.8,597.3 L 639.7,599.9 L 643.8,602.6 L 647.9,605.1 L 652.0,607.7 L 656.0,610.1 L 660.1,612.5 L 664.1,614.9 L 668.1,617.4 L 672.2,619.8 L 676.2,622.3 L 680.2,624.7 L 684.2,627.2 L 688.3,629.7 L 692.3,632.1 L 696.3,634.6 L 700.4,637.0 L 704.4,639.5 L 708.4,642.0 L 712.4,644.4 L 716.5,646.9 L 720.5,649.3 L 724.5,651.8 L 728.6,654.2 L 732.6,656.7 L 736.6,659.2 L 740.7,661.6 L 744.7,664.1 L 748.7,666.5 L 752.8,669.0 L 756.8,671.4 L 760.9,673.9 L 764.9,676.3 L 768.9,678.8 L 773.0,681.2 L 777.0,683.7 L 781.1,686.1 L 785.1,688.5 L 789.2,691.0 L 793.2,693.4 L 797.3,695.8 L 801.3,698.3 L 805.4,700.7 L 809.4,703.1 L 813.5,705.6 L 817.6,708.0 L 821.6,710.4 L 825.7,712.8 L 829.8,715.2 L 833.8,717.6 L 837.9,720.0 L 842.0,722.4 L 846.1,724.8 L 850.2,727.2 L 854.3,729.5 L 858.4,731.9 L 862.5,734.2 L 866.6,736.6 L 870.8,738.9 L 874.9,741.2 L 879.1,743.5 L 883.3,745.8 L 887.5,748.1 L 891.8,750.3 L 896.0,752.5 L 900.2,754.6 L 904.5,756.8 L 908.8,758.9 L 913.2,761.0 L 917.6,763.0 L 922.1,765.0 L 926.7,766.8 L 931.4,768.5 L 936.1,770.1 L 940.8,771.6 L 945.6,772.9 L 950.4,774.1 L 955.2,775.1 L 960.1,776.0 L 965.0,776.8 L 969.9,777.4 L 974.7,777.9 L 979.6,778.3 L 984.5,778.7 L 989.4,778.9 L 994.2,779.0 L 999.1,779.1 L 1003.9,779.0 L 1008.8,778.9 L 1013.6,778.7 L 1018.5,778.4 L 1023.3,778.1 L 1028.2,777.7 L 1033.1,777.1 L 1038.0,776.4 L 1042.9,775.6 L 1047.8,774.7 L 1052.6,773.6 L 1057.3,772.4 L 1061.9,771.1 L 1066.5,769.8 L 1071.1,768.6 L 1075.6,767.3 L 1080.1,766.1 L 1084.7,764.8 L 1089.4,763.5 L 1094.0,762.1 L 1098.6,760.7 L 1103.3,759.1 L 1107.9,757.4 L 1112.6,755.5 L 1117.2,753.5 L 1121.7,751.3 L 1126.2,748.8 L 1130.4,746.3 L 1134.6,743.7 L 1138.7,741.0 L 1142.7,738.1 L 1146.7,735.2 L 1150.6,732.2 L 1154.4,729.2 L 1158.2,726.0 L 1161.9,722.6 L 1165.5,719.1 L 1169.0,715.5 L 1172.4,711.5 L 1175.6,707.3 L 1178.5,702.8 L 1181.1,698.0 L 1183.2,693.1 L 1184.9,688.3 L 1186.4,683.5 L 1187.8,678.7 L 1188.9,673.7 L 1189.9,668.8 L 1190.7,663.9 L 1191.3,658.9 L 1191.7,654.0 L 1192.1,649.1 L 1192.2,644.1 L 1192.2,639.0 L 1191.8,633.5 L 1191.0,628.2 L 1189.9,623.3 L 1188.8,618.7 L 1187.8,614.4 L 1187.2,610.4 L 1186.9,606.6 L 1187.0,602.2 L 1187.3,597.8 L 1187.7,593.5 L 1188.3,589.3 L 1189.1,585.3 L 1190.3,581.6 L 1191.7,578.3 L 1193.6,575.5 L 1196.0,572.8 L 1199.1,570.0 L 1202.6,566.9 L 1206.1,563.8 L 1209.5,561.2 L 1213.1,558.5 L 1216.8,555.9 L 1220.6,553.3 L 1224.5,550.6 L 1228.4,548.0 L 1232.4,545.4 L 1236.3,542.7 L 1240.3,540.0 L 1244.2,537.2 L 1248.2,534.2 L 1252.2,531.0 L 1256.2,527.3 L 1260.0,522.8 L 1263.2,517.7 L 1265.5,512.4 L 1267.1,507.6 L 1268.5,501.8 L 1268.8,495.1 L 1267.9,489.0 L 1264.8,482.3 L 1260.9,477.5 L 1256.9,473.8 L 1253.0,470.5 L 1249.1,467.5 L 1245.2,464.6 L 1241.3,461.7 L 1237.3,459.0 L 1233.3,456.3 L 1229.3,453.7 L 1225.3,451.0 L 1221.3,448.5 L 1217.3,445.9 L 1213.3,443.3 L 1209.3,440.8 L 1205.2,438.3 L 1201.2,435.8 L 1197.2,433.4 L 1193.1,430.9 L 1189.1,428.4 L 1185.0,426.0 L 1180.9,423.5 L 1176.9,421.1 L 1172.8,418.7 L 1168.8,416.3 L 1164.7,413.9 L 1160.6,411.5 L 1156.5,409.1 L 1152.5,406.7 L 1148.4,404.3 L 1144.3,401.9 L 1140.2,399.5 L 1136.1,397.1 L 1132.1,394.7 L 1128.0,392.4 L 1123.9,390.0 L 1119.8,387.6 L 1115.7,385.2 L 1111.7,382.9 L 1107.6,380.5 L 1103.5,378.1 L 1099.4,375.7 L 1095.3,373.4 L 1091.3,371.0 L 1087.2,368.6 L 1083.1,366.2 L 1079.0,363.9 L 1075.0,361.5 L 1070.9,359.1 L 1066.8,356.7 L 1062.8,354.3 L 1058.7,351.9 L 1054.7,349.5 L 1050.6,347.1 L 1046.6,344.7 L 1042.5,342.3 L 1038.5,339.9 L 1034.4,337.5 L 1030.4,335.0 L 1026.4,332.6 L 1022.4,330.2 L 1018.4,327.7 L 1014.4,325.2 L 1010.4,322.7 L 1006.4,320.2 L 1002.4,317.7 L 998.4,315.2 L 994.5,312.7 L 990.5,310.2 L 986.5,307.7 L 982.5,305.2 L 978.5,302.6 L 974.6,300.1 L 970.6,297.6 L 966.6,295.0 L 962.6,292.5 L 958.7,289.9 L 954.7,287.4 L 950.7,284.9 L 946.7,282.3 L 942.8,279.8 L 938.8,277.2 L 934.8,274.7 L 930.8,272.1 L 926.8,269.6 L 922.9,267.1 L 918.9,264.5 L 914.9,262.0 L 910.9,259.4 L 906.9,256.9 L 902.9,254.4 L 898.9,251.9 L 894.9,249.3 L 890.9,246.8 L 886.9,244.3 L 882.9,241.8 L 878.8,239.3 L 874.8,236.8 L 870.8,234.3 Z" fill="#4a4a4a" fill-rule="evenodd"/>
<polyline points="866.4,241.4 870.5,243.9 874.5,246.3 878.5,248.8 882.5,251.3 886.5,253.8 890.5,256.3 894.5,258.8 898.5,261.4 902.5,263.9 906.5,266.4 910.5,268.9 914.4,271.5 918.4,274.0 922.4,276.6 926.4,279.1 930.3,281.6 934.3,284.2 938.3,286.7 942.3,289.3 946.3,291.8 950.2,294.4 954.2,296.9 958.2,299.4 962.2,302.0 966.1,304.5 970.1,307.1 974.1,309.6 978.1,312.1 982.1,314.7 986.1,317.2 990.1,319.7 994.0,322.2 998.0,324.7 1002.0,327.2 1006.0,329.7 1010.1,332.2 1014.1,334.7 1018.1,337.2 1022.1,339.7 1026.1,342.1 1030.2,344.6 1034.2,347.0 1038.3,349.4 1042.3,351.8 1046.4,354.2 1050.5,356.6 1054.5,359.0 1058.6,361.4 1062.7,363.8 1066.7,366.2 1070.8,368.6 1074.9,371.0 1078.9,373.4 1083.0,375.7 1087.1,378.1 1091.2,380.5 1095.3,382.9 1099.3,385.2 1103.4,387.6 1107.5,390.0 1111.6,392.4 1115.7,394.7 1119.7,397.1 1123.8,399.5 1127.9,401.9 1132.0,404.2 1136.1,406.6 1140.1,409.0 1144.2,411.4 1148.3,413.8 1152.3,416.2 1156.4,418.6 1160.5,421.0 1164.5,423.4 1168.6,425.8 1172.6,428.2 1176.7,430.6 1180.7,433.1 1184.8,435.5 1188.8,437.9 1192.9,440.4 1196.9,442.9 1200.9,445.3 1204.9,447.8 1208.9,450.3 1212.9,452.9 1216.9,455.4 1220.8,458.0 1224.8,460.6 1228.7,463.2 1232.6,465.8 1236.5,468.5 1240.4,471.2 1244.1,474.1 1247.9,477.0 1251.5,480.0 1254.9,483.2 1257.9,486.9 1259.9,491.1 1260.5,495.8 1260.4,500.5 1259.2,505.1 1257.7,509.5 1255.8,513.9 1253.4,517.9 1250.3,521.5 1246.8,524.7 1243.2,527.6 1239.4,530.5 1235.5,533.2 1231.7,535.9 1227.7,538.5 1223.8,541.2 1219.9,543.8 1216.0,546.4 1212.1,549.1 1208.2,551.8 1204.4,554.6 1200.8,557.6 1197.2,560.7 1193.6,563.8 1190.2,567.0 1187.0,570.5 1184.4,574.4 1182.5,578.7 1181.1,583.2 1180.2,587.9 1179.5,592.5 1179.0,597.2 1178.8,601.9 1178.7,606.7 1179.0,611.4 1179.7,616.0 1180.8,620.6 1181.9,625.2 1182.9,629.8 1183.6,634.5 1184.0,639.2 1184.0,643.9 1183.8,648.6 1183.5,653.3 1183.1,658.0 1182.5,662.7 1181.7,667.4 1180.9,672.0 1179.8,676.6 1178.5,681.2 1177.1,685.7 1175.5,690.1 1173.6,694.4 1171.4,698.6 1168.8,702.6 1166.0,706.3 1162.9,709.9 1159.6,713.3 1156.2,716.6 1152.7,719.7 1149.1,722.8 1145.5,725.8 1141.7,728.6 1137.9,731.4 1134.0,734.1 1130.1,736.7 1126.1,739.3 1122.1,741.7 1117.9,743.9 1113.7,746.0 1109.4,747.9 1105.0,749.7 1100.6,751.3 1096.1,752.8 1091.6,754.2 1087.1,755.6 1082.5,756.9 1078.0,758.1 1073.4,759.4 1068.9,760.6 1064.3,761.9 1059.8,763.2 1055.2,764.4 1050.6,765.5 1046.0,766.6 1041.4,767.5 1036.7,768.3 1032.1,768.9 1027.4,769.4 1022.7,769.9 1018.0,770.2 1013.2,770.5 1008.5,770.6 1003.8,770.8 999.1,770.8 994.4,770.8 989.7,770.6 984.9,770.4 980.2,770.1 975.5,769.7 970.8,769.2 966.2,768.6 961.5,767.9 956.8,767.0 952.2,766.0 947.6,764.9 943.1,763.6 938.6,762.2 934.1,760.7 929.7,759.1 925.3,757.4 921.0,755.5 916.7,753.5 912.4,751.5 908.2,749.4 904.0,747.3 899.8,745.1 895.6,743.0 891.4,740.8 887.2,738.6 883.1,736.3 878.9,734.0 874.8,731.7 870.7,729.4 866.6,727.1 862.5,724.7 858.4,722.4 854.3,720.0 850.2,717.6 846.2,715.3 842.1,712.9 838.0,710.5 834.0,708.1 829.9,705.7 825.8,703.3 821.8,700.9 817.7,698.5 813.7,696.0 809.6,693.6 805.6,691.2 801.5,688.8 797.5,686.3 793.4,683.9 789.4,681.5 785.3,679.0 781.3,676.6 777.3,674.1 773.2,671.7 769.2,669.3 765.1,666.8 761.1,664.4 757.1,661.9 753.0,659.5 749.0,657.0 745.0,654.6 740.9,652.1 736.9,649.6 732.9,647.2 728.8,644.7 724.8,642.3 720.8,639.8 716.8,637.4 712.7,634.9 708.7,632.4 704.7,630.0 700.6,627.5 696.6,625.1 692.6,622.6 688.5,620.1 684.5,617.7 680.5,615.2 676.5,612.8 672.4,610.3 668.4,607.9 664.3,605.4 660.3,603.0 656.2,600.6 652.2,598.1 648.2,595.6 644.3,593.0 640.3,590.4 636.4,587.8 632.4,585.3 628.3,582.9 624.1,580.8 619.7,579.2 615.1,578.1 610.4,577.6 605.7,577.1 601.0,576.5 596.3,576.0 591.6,575.5 586.9,575.3 582.2,575.4 577.5,575.8 572.8,576.4 568.2,577.2 563.5,578.2 558.9,579.3 554.4,580.5 549.9,581.9 545.4,583.4 541.0,585.0 536.6,586.9 532.4,588.9 528.2,591.2 524.2,593.6 520.2,596.1 516.2,598.7 512.4,601.5 508.8,604.5 505.2,607.5 501.6,610.6 497.9,613.5 494.1,616.4 490.4,619.2 486.6,622.1 482.8,624.9 478.8,627.4 474.7,629.7 470.3,631.4 465.8,632.7 461.1,633.7 456.5,634.5 451.8,635.0 447.1,635.4 442.4,635.6 437.7,635.7 432.9,635.7 428.2,635.4 423.5,634.9 418.9,634.0 414.3,632.9 409.8,631.4 405.4,629.7 401.1,627.7 396.9,625.6 392.8,623.3 388.8,620.8 384.8,618.2 381.1,615.4 377.4,612.4 373.9,609.2 370.5,606.0 367.1,602.7 363.7,599.4 360.3,596.2 356.9,592.9 353.6,589.5 350.3,586.1 347.1,582.6 343.9,579.2 340.5,575.9 337.0,572.8 333.2,569.9 329.2,567.4 325.2,565.0 321.0,562.8 316.7,560.8 312.3,559.0 307.9,557.4 303.4,555.9 298.9,554.5 294.4,553.3 289.7,552.3 285.1,551.6 280.4,551.2 275.7,551.1 270.9,551.4 266.3,552.0 261.6,552.8 257.0,553.8 252.4,554.8 247.8,556.0 243.2,557.1 238.6,558.2 234.1,559.5 229.5,560.8 225.0,562.2 220.6,563.7 216.1,565.2 211.7,566.9 207.3,568.6 202.9,570.3 198.5,572.2 194.2,574.1 190.0,576.3 186.0,578.6 182.1,581.3 178.3,584.2 174.7,587.2 171.3,590.5 168.1,593.9 165.0,597.5 162.0,601.1 159.1,604.9 156.4,608.7 153.7,612.6 151.3,616.7 149.0,620.8 146.9,625.0 145.1,629.4 143.5,633.8 142.2,638.4 141.1,642.9 140.2,647.6 139.4,652.2 138.8,656.9 138.4,661.6 138.3,666.3 138.3,671.1 138.5,675.8 139.0,680.5 139.8,685.1 140.8,689.7 142.2,694.2 144.0,698.6 146.2,702.8 148.7,706.8 151.7,710.4 155.2,713.6 158.9,716.5 162.9,719.0 167.1,721.2 171.5,723.0 176.0,724.2 180.7,724.8 185.4,724.9 190.1,724.7 194.8,724.2 199.5,723.7 204.1,722.8 208.7,721.6 213.3,720.4 217.8,719.2 222.5,718.2 227.1,717.5 231.8,717.1 236.5,716.8 241.3,716.6 246.0,716.7 250.7,716.9 255.4,717.2 260.1,717.7 264.8,718.3 269.4,719.1 274.1,719.9 278.7,720.9 283.3,721.9 287.9,722.9 292.5,724.0 297.1,725.1 301.7,726.2 306.3,727.3 310.9,728.4 315.5,729.4 320.1,730.5 324.7,731.4 329.3,732.4 333.9,733.4 338.5,734.5 343.1,735.5 347.7,736.6 352.3,737.7 356.9,738.8 361.5,739.9 366.1,741.0 370.7,742.1 375.3,743.2 379.9,744.3 384.5,745.3 389.1,746.4 393.7,747.4 398.3,748.4 402.9,749.4 407.5,750.3 412.2,751.2 416.8,752.0 421.5,752.9 426.1,753.6 430.8,754.3 435.5,755.0 440.2,755.6 444.8,756.1 449.5,756.5 454.3,756.9 459.0,757.1 463.7,757.4 468.4,757.5 473.1,757.6 477.8,757.6 482.6,757.6 487.3,757.5 492.0,757.4 496.7,757.2 501.4,757.0 506.1,756.8 510.9,756.5 515.6,756.3 520.3,756.0 525.0,755.7 529.7,755.4 534.4,755.1 539.1,754.7 543.8,754.4 548.5,754.1 553.3,753.9 558.0,753.6 562.7,753.4 567.4,753.1 572.1,752.9 576.8,752.8 581.6,752.6 586.3,752.3 591.0,752.1 595.7,751.8 600.4,751.5 605.1,751.2 609.8,750.9 614.5,750.6 619.2,750.2 623.9,749.9 628.7,749.5 633.4,749.2 638.1,748.8 642.8,748.4 647.5,748.1 652.2,747.7 656.9,747.3 661.6,747.0 666.3,746.6 671.0,746.3 675.7,746.0 680.4,745.6 685.1,745.3 689.9,745.0 694.6,744.7 699.3,744.4 704.0,744.2 708.7,744.0 713.4,743.7 718.1,743.6 722.9,743.4 727.6,743.3 732.3,743.2 737.0,743.2 741.7,743.2 746.5,743.2 751.2,743.4 755.9,743.6 760.6,743.9 765.3,744.3 770.0,744.9 774.7,745.6 779.3,746.5 783.9,747.6 788.4,748.9 792.9,750.3 797.4,751.9 801.8,753.6 806.2,755.3 810.5,757.1 814.9,758.8 819.3,760.5 823.8,762.0 828.3,763.5 832.7,765.1 837.2,766.6 841.6,768.2 846.1,769.8 850.5,771.4 855.0,773.0 859.4,774.6 863.9,776.2 868.3,777.8 872.7,779.4 877.2,781.0 881.6,782.6 886.1,784.2 890.5,785.7 895.0,787.3 899.4,788.9 903.9,790.5 908.3,792.1 912.8,793.7 917.2,795.2 921.7,796.8 926.1,798.3 930.6,799.9 935.1,801.4 939.5,802.9 944.0,804.4 948.5,805.9 952.9,807.4 957.4,809.0 961.9,810.5 966.3,812.0 970.8,813.5 975.3,815.0 979.8,816.5 984.3,818.0 988.8,819.4 993.3,820.8 997.8,822.1 1002.3,823.4 1006.9,824.6 1011.5,825.8 1016.1,826.9 1020.7,828.0 1025.3,829.0 1029.9,830.0 1034.5,830.9 1039.2,831.8 1043.8,832.7 1048.4,833.5 1053.1,834.3 1057.8,835.0 1062.4,835.7 1067.1,836.4 1071.8,837.0 1076.5,837.5 1081.2,838.0 1085.9,838.5 1090.6,838.9 1095.3,839.3 1100.0,839.6 1104.7,839.9 1109.4,840.2 1114.1,840.4 1118.8,840.6 1123.6,840.7 1128.3,840.7 1133.0,840.7 1137.7,840.7 1142.4,840.6 1147.2,840.5 1151.9,840.3 1156.6,840.1 1161.3,839.7 1166.0,839.4 1170.7,839.0 1175.4,838.5 1180.1,838.0 1184.8,837.5 1189.5,836.9 1194.1,836.2 1198.8,835.5 1203.5,834.8 1208.1,834.0 1212.8,833.1 1217.4,832.3 1222.0,831.3 1226.6,830.4 1231.3,829.3 1235.9,828.3 1240.4,827.1 1245.0,825.9 1249.6,824.7 1254.1,823.3 1258.6,821.9 1263.0,820.4 1267.5,818.8 1271.9,817.2 1276.4,815.6 1280.8,813.9 1285.2,812.2 1289.6,810.5 1294.0,808.8 1298.4,807.2 1302.8,805.5 1307.3,803.9 1311.7,802.3 1316.1,800.7 1320.6,799.1 1325.0,797.5 1329.5,795.9 1333.9,794.3 1338.4,792.7 1342.8,791.1 1347.3,789.5 1351.7,787.9 1356.1,786.3 1360.6,784.7 1365.0,783.1 1369.5,781.5 1373.9,779.9 1378.3,778.3 1382.8,776.7 1387.2,775.1 1391.7,773.5 1396.1,771.9 1400.5,770.3 1405.0,768.7 1409.4,767.1 1413.9,765.5 1418.3,763.9 1422.7,762.3 1427.2,760.6 1431.6,759.0 1436.0,757.4 1440.5,755.8 1444.9,754.2 1449.3,752.5 1453.8,750.9 1458.2,749.3 1462.6,747.7 1467.1,746.0 1471.5,744.4 1475.9,742.8 1480.3,741.1 1484.8,739.5 1489.2,737.8 1493.6,736.2 1498.0,734.6 1502.5,732.9 1506.9,731.3 1511.3,729.7 1515.8,728.0 1520.2,726.4 1524.6,724.7 1529.0,723.1 1533.4,721.4 1537.9,719.8 1542.3,718.1 1546.7,716.4 1551.1,714.7 1555.5,713.0 1559.9,711.3 1564.3,709.5 1568.7,707.8 1573.0,706.0 1577.4,704.2 1581.8,702.4 1586.1,700.6 1590.5,698.7 1594.8,696.9 1599.1,695.0 1603.4,693.0 1607.7,691.0 1612.0,689.0 1616.2,687.0 1620.5,684.9 1624.7,682.8 1628.9,680.8 1633.2,678.7 1637.4,676.5 1641.6,674.4 1645.8,672.3 1650.0,670.1 1654.2,668.0 1658.4,665.8 1662.6,663.6 1666.8,661.5 1671.0,659.3 1675.2,657.1 1679.3,654.9 1683.5,652.7 1687.7,650.5 1691.8,648.2 1696.0,646.0 1700.2,643.8 1704.3,641.5 1708.5,639.3 1712.6,637.0 1716.7,634.7 1720.8,632.4 1725.0,630.1 1729.1,627.8 1733.2,625.4 1737.2,623.1 1741.3,620.7 1745.4,618.4 1749.5,616.0 1753.6,613.6 1757.7,611.3 1761.8,608.9 1765.8,606.5 1769.9,604.1 1773.9,601.6 1777.9,599.1 1781.9,596.5 1785.8,593.9 1789.6,591.2 1793.4,588.3 1797.0,585.3 1800.4,582.0 1803.8,578.7 1806.8,575.1 1809.3,571.1 1810.7,566.6 1810.3,561.9 1808.7,557.5 1806.4,553.3 1803.5,549.6 1800.1,546.4 1796.4,543.5 1792.6,540.7 1788.6,538.1 1784.5,535.8 1780.4,533.5 1776.3,531.2 1772.2,528.8 1768.1,526.4 1764.2,523.8 1760.2,521.3 1756.2,518.7 1752.4,516.0 1748.7,513.0 1745.5,509.6 1742.7,505.8 1740.3,501.7 1738.3,497.4 1736.5,493.1 1735.1,488.6 1733.9,484.0 1733.1,479.4 1732.6,474.7 1732.4,469.9 1732.6,465.2 1733.0,460.5 1733.6,455.8 1734.4,451.2 1735.5,446.6 1736.9,442.1 1738.9,437.8 1741.4,433.8 1744.5,430.2 1747.9,427.0 1751.6,424.0 1755.5,421.4 1759.5,419.0 1763.8,417.1 1768.4,415.7 1773.0,414.7 1777.7,414.3 1782.4,414.3 1787.1,414.6 1791.8,415.0 1796.5,415.4 1801.2,416.0 1805.9,416.5 1810.6,417.0 1815.3,417.5 1820.0,417.8 1824.7,417.9 1829.4,417.8 1834.1,417.6 1838.8,417.2 1843.5,416.7 1848.2,415.9 1852.8,414.8 1857.1,413.0 1861.1,410.5 1864.9,407.6 1868.6,404.7 1872.2,401.6 1875.7,398.5 1879.0,395.2 1882.2,391.6 1885.1,387.9 1887.9,384.1 1890.6,380.3 1893.2,376.3 1895.8,372.4 1898.3,368.4 1900.7,364.3 1903.1,360.2 1905.3,356.1 1907.5,351.9 1909.5,347.6 1911.3,343.2 1912.5,338.7 1912.9,334.0 1911.7,329.5 1908.4,326.2 1903.9,324.8 1899.4,323.5 1895.1,321.5 1891.0,319.2 1887.1,316.5 1884.3,312.8 1883.1,308.2 1883.0,303.5 1883.5,298.8 1884.2,294.1 1885.1,289.5 1886.4,285.0 1887.8,280.5 1889.3,276.0 1890.8,271.5 1892.4,267.1 1894.0,262.6 1895.6,258.2 1897.2,253.8 1898.9,249.3 1900.4,244.9 1902.0,240.4 1903.4,235.9 1904.8,231.4 1905.9,226.8 1906.6,222.2 1906.7,217.4 1905.8,212.8 1903.5,208.7 1900.2,205.4 1896.1,203.0 1891.7,201.3 1887.1,200.2 1882.4,199.5 1877.7,199.1 1873.0,198.8 1868.3,198.6 1863.6,198.4 1858.9,198.2 1854.2,198.1 1849.4,197.9 1844.7,197.6 1840.0,197.4 1835.3,197.1 1830.6,196.8 1825.9,196.5 1821.2,196.3 1816.5,196.0 1811.7,195.8 1807.0,195.6 1802.3,195.4 1797.6,195.1 1792.9,194.9 1788.2,194.7 1783.5,194.5 1778.7,194.3 1774.0,194.1 1769.3,193.9 1764.6,193.7 1759.9,193.5 1755.2,193.3 1750.4,193.2 1745.7,193.0 1741.0,192.8 1736.3,192.6 1731.6,192.4 1726.8,192.2 1722.1,192.1 1717.4,191.9 1712.7,191.7 1708.0,191.6 1703.3,191.4 1698.5,191.2 1693.8,191.0 1689.1,190.9 1684.4,190.7 1679.7,190.5 1675.0,190.4 1670.2,190.2 1665.5,190.0 1660.8,189.9 1656.1,189.7 1651.4,189.6 1646.7,189.4 1641.9,189.2 1637.2,189.1 1632.5,188.9 1627.8,188.8 1623.1,188.6 1618.3,188.4 1613.6,188.3 1608.9,188.1 1604.2,188.0 1599.5,187.8 1594.8,187.7 1590.0,187.5 1585.3,187.4 1580.6,187.2 1575.9,187.1 1571.2,186.9 1566.4,186.7 1561.7,186.6 1557.0,186.4 1552.3,186.3 1547.6,186.1 1542.9,186.0 1538.1,185.8 1533.4,185.7 1528.7,185.5 1524.0,185.4 1519.3,185.2 1514.6,185.1 1509.8,184.9 1505.1,184.8 1500.4,184.6 1495.7,184.5 1491.0,184.3 1486.2,184.2 1481.5,184.0 1476.8,183.9 1472.1,183.7 1467.4,183.6 1462.7,183.4 1457.9,183.3 1453.2,183.1 1448.5,183.0 1443.8,182.8 1439.1,182.7 1434.3,182.5 1429.6,182.4 1424.9,182.2 1420.2,182.1 1415.5,181.9 1410.8,181.8 1406.0,181.6 1401.3,181.5 1396.6,181.3 1391.9,181.2 1387.2,181.0 1382.4,180.9 1377.7,180.7 1373.0,180.6 1368.3,180.4 1363.6,180.3 1358.9,180.1 1354.1,180.0 1349.4,179.8 1344.7,179.7 1340.0,179.5 1335.3,179.4 1330.5,179.2 1325.8,179.1 1321.1,178.9 1316.4,178.8 1311.7,178.6 1307.0,178.5 1302.2,178.3 1297.5,178.2 1292.8,178.0 1288.1,177.9 1283.4,177.7 1278.6,177.6 1273.9,177.4 1269.2,177.3 1264.5,177.1 1259.8,177.0 1255.1,176.8 1250.3,176.7 1245.6,176.5 1240.9,176.3 1236.2,176.2 1231.5,176.0 1226.8,175.9 1222.0,175.7 1217.3,175.6 1212.6,175.4 1207.9,175.3 1203.2,175.1 1198.4,174.9 1193.7,174.8 1189.0,174.6 1184.3,174.5 1179.6,174.3 1174.9,174.1 1170.1,174.0 1165.4,173.8 1160.7,173.7 1156.0,173.5 1151.3,173.3 1146.6,173.2 1141.8,173.0 1137.1,172.8 1132.4,172.7 1127.7,172.5 1123.0,172.3 1118.2,172.2 1113.5,172.0 1108.8,171.8 1104.1,171.7 1099.4,171.5 1094.7,171.3 1089.9,171.1 1085.2,171.0 1080.5,170.8 1075.8,170.6 1071.1,170.4 1066.4,170.3 1061.6,170.1 1056.9,169.9 1052.2,169.7 1047.5,169.5 1042.8,169.4 1038.1,169.2 1033.3,169.0 1028.6,168.8 1023.9,168.6 1019.2,168.4 1014.5,168.2 1009.8,168.0 1005.0,167.8 1000.3,167.6 995.6,167.4 990.9,167.2 986.2,167.0 981.5,166.8 976.8,166.6 972.0,166.4 967.3,166.1 962.6,165.9 957.9,165.7 953.2,165.5 948.5,165.2 943.7,165.0 939.0,164.8 934.3,164.5 929.6,164.3 924.9,164.1 920.2,163.8 915.5,163.6 910.7,163.3 906.0,163.1 901.3,162.9 896.6,162.6 891.9,162.4 887.2,162.1 882.5,161.9 877.7,161.6 873.0,161.4 868.3,161.1 863.6,160.8 858.9,160.6 854.2,160.3 849.5,160.1 844.8,159.8 840.0,159.6 835.3,159.3 830.6,159.0 825.9,158.8 821.2,158.5 816.5,158.2 811.8,158.0 807.0,157.7 802.3,157.5 797.6,157.2 792.9,156.9 788.2,156.7 783.5,156.4 778.8,156.1 774.1,155.9 769.3,155.6 764.6,155.3 759.9,155.1 755.2,154.8 750.5,154.5 745.8,154.2 741.1,154.0 736.4,153.7 731.6,153.4 726.9,153.2 722.2,152.9 717.5,152.6 712.8,152.4 708.1,152.1 703.4,151.8 698.7,151.6 693.9,151.3 689.2,151.0 684.5,150.8 679.8,150.5 675.1,150.2 670.4,150.0 665.7,149.7 660.9,149.4 656.2,149.2 651.5,148.9 646.8,148.6 642.1,148.4 637.4,148.1 632.7,147.8 628.0,147.6 623.2,147.3 618.5,147.1 613.8,146.8 609.1,146.5 604.4,146.3 599.7,146.0 595.0,145.8 590.2,145.5 585.5,145.3 580.8,145.0 576.1,144.8 571.4,144.5 566.7,144.3 562.0,144.0 557.3,143.8 552.5,143.6 547.8,143.3 543.1,143.1 538.4,142.9 533.7,142.6 529.0,142.4 524.2,142.2 519.5,141.9 514.8,141.7 510.1,141.5 505.4,141.3 500.7,141.1 496.0,140.9 491.2,140.7 486.5,140.5 481.8,140.3 477.1,140.1 472.4,139.9 467.7,139.7 462.9,139.6 458.2,139.4 453.5,139.2 448.8,139.1 444.1,139.0 439.4,138.8 434.6,138.7 429.9,138.6 425.2,138.5 420.5,138.4 415.8,138.3 411.0,138.3 406.3,138.3 401.6,138.3 396.9,138.3 392.2,138.3 387.4,138.5 382.7,138.6 378.0,138.9 373.3,139.3 368.6,139.7 363.9,140.3 359.3,141.1 355.0,143.1 352.0,146.7 350.4,151.1 349.8,155.8 349.8,160.5 350.6,165.1 352.0,169.6 354.0,173.9 356.4,178.0 359.4,181.6 362.8,184.9 366.4,187.9 370.2,190.8 373.9,193.7 377.6,196.6 381.3,199.6 385.0,202.5 388.7,205.5 392.4,208.4 396.1,211.3 399.9,214.1 403.7,216.9 407.5,219.7 411.4,222.3 415.4,224.9 419.4,227.4 423.4,229.8 427.5,232.2 431.6,234.5 435.8,236.8 440.0,238.9 444.2,241.0 448.5,242.9 452.9,244.6 457.4,246.2 461.9,247.7 466.4,249.0 471.0,250.1 475.6,250.9 480.3,251.6 485.0,251.9 489.7,252.0 494.4,251.8 499.1,251.3 503.8,250.6 508.4,249.7 513.0,248.6 517.6,247.3 522.0,245.8 526.5,244.2 530.9,242.5 535.2,240.7 539.6,238.9 544.0,237.1 548.3,235.2 552.6,233.2 556.8,231.2 561.1,229.1 565.3,227.0 569.5,224.9 573.8,222.8 578.0,220.7 582.2,218.6 586.4,216.5 590.7,214.4 594.9,212.3 599.2,210.3 603.4,208.3 607.8,206.4 612.1,204.5 616.5,202.7 620.9,201.1 625.3,199.5 629.8,198.1 634.3,196.7 638.9,195.4 643.4,194.2 648.0,193.1 652.7,192.1 657.3,191.2 661.9,190.3 666.6,189.5 671.2,188.8 675.9,188.1 680.6,187.5 685.3,187.0 690.0,186.5 694.7,186.1 699.4,185.8 704.1,185.6 708.8,185.5 713.6,185.5 718.3,185.6 723.0,185.9 727.7,186.2 732.4,186.5 737.1,187.0 741.8,187.6 746.5,188.3 751.1,189.0 755.7,189.9 760.4,190.9 765.0,192.0 769.5,193.2 774.1,194.5 778.6,196.0 783.0,197.5 787.4,199.2 791.8,200.9 796.1,202.8 800.4,204.8 804.7,206.8 808.9,208.9 813.1,211.0 817.3,213.2 821.5,215.3 825.7,217.6 829.8,219.8 834.0,222.1 838.1,224.5 842.1,226.8 846.2,229.2 850.3,231.6 854.3,234.0 858.4,236.5 862.4,238.9 866.4,241.4" fill="none" stroke="#ffffff" stroke-width="0.8" stroke-dasharray="6 10" opacity="0.5"/>
<polygon points="757.5,201.5 1040.3,381.3 1023.2,408.2 740.4,228.4" fill="#9aa0a6" stroke="#6b7076" stroke-width="1.5"/>
<polygon points="879.4,220.2 883.5,222.8 887.5,225.3 891.6,227.8 895.6,230.3 899.7,232.8 903.7,235.3 907.7,237.9 911.7,240.4 915.7,243.0 919.7,245.5 923.7,248.0 927.7,250.6 931.7,253.1 935.7,255.7 939.7,258.2 943.7,260.8 947.7,263.3 951.7,265.9 955.6,268.4 959.6,270.9 963.6,273.5 967.6,276.0 971.5,278.6 975.5,281.1 979.5,283.6 983.4,286.2 987.4,288.7 991.4,291.2 995.3,293.7 999.3,296.2 1003.3,298.7 1007.2,301.2 1011.2,303.7 1015.2,306.2 1019.2,308.7 1023.1,311.2 1027.1,313.6 1031.1,316.1 1035.0,318.5 1039.0,320.9 1043.0,323.3 1047.0,325.7 1051.0,328.1 1055.0,330.5 1059.0,332.9 1063.1,335.3 1067.1,337.7 1071.1,340.1 1075.2,342.5 1079.3,344.8 1083.3,347.2 1087.4,349.6 1091.4,352.0 1095.5,354.3 1111.6,326.8 1107.5,324.4 1103.4,322.1 1099.4,319.7 1095.4,317.4 1091.3,315.0 1087.3,312.6 1083.3,310.3 1079.3,307.9 1075.3,305.5 1071.3,303.2 1067.3,300.8 1063.4,298.4 1059.4,296.0 1055.5,293.7 1051.6,291.3 1047.7,288.9 1043.8,286.5 1039.9,284.1 1036.0,281.7 1032.1,279.2 1028.2,276.8 1024.2,274.3 1020.3,271.8 1016.3,269.3 1012.4,266.8 1008.5,264.3 1004.5,261.8 1000.6,259.3 996.6,256.8 992.6,254.2 988.7,251.7 984.7,249.2 980.7,246.6 976.8,244.1 972.8,241.6 968.8,239.0 964.8,236.5 960.9,233.9 956.9,231.4 952.9,228.8 948.9,226.3 944.9,223.7 940.8,221.1 936.8,218.6 932.8,216.0 928.8,213.5 924.7,210.9 920.6,208.4 916.6,205.8 912.5,203.3 908.4,200.7 904.3,198.2 900.2,195.6 896.0,193.1" fill="#e8a33d" stroke="#a9701d" stroke-width="1.5" opacity="0.92"/>
<polygon points="373.1,209.6 376.8,212.6 380.6,215.6 384.4,218.6 388.2,221.6 392.1,224.5 396.1,227.5 400.1,230.3 404.3,233.1 408.5,235.8 412.6,238.4 416.8,240.9 421.0,243.4 425.3,245.9 429.7,248.3 434.2,250.6 438.8,252.8 443.5,254.8 448.3,256.8 453.2,258.5 458.1,260.1 463.1,261.5 468.2,262.8 473.5,263.8 478.9,264.5 484.4,264.9 489.9,265.0 495.4,264.7 500.8,264.2 506.0,263.4 511.1,262.4 516.3,261.2 521.4,259.7 526.4,258.1 531.1,256.3 535.7,254.5 540.2,252.7 544.6,250.9 549.0,249.0 553.6,247.0 558.1,245.0 562.5,242.9 566.8,240.8 571.1,238.7 575.3,236.5 579.6,234.4 583.8,232.3 588.0,230.2 592.2,228.1 596.4,226.1 600.5,224.0 604.7,222.0 608.8,220.1 613.0,218.3 617.1,216.5 621.2,214.8 625.3,213.3 629.5,211.8 633.8,210.4 638.0,209.1 642.3,207.9 646.6,206.8 650.9,205.7 655.3,204.8 659.7,203.9 664.2,203.1 668.7,202.3 673.2,201.6 677.7,201.0 682.2,233.7 678.1,234.3 674.0,234.9 669.9,235.6 665.9,236.4 662.0,237.2 658.2,238.0 654.6,238.8 651.0,239.8 647.5,240.8 643.9,241.9 640.2,243.1 636.4,244.4 633.1,245.6 629.8,247.0 626.3,248.5 622.6,250.2 618.8,251.9 614.9,253.8 610.9,255.7 606.8,257.7 602.8,259.8 598.6,261.8 594.4,263.9 590.1,266.1 585.8,268.2 581.4,270.4 576.8,272.6 572.1,274.9 567.2,277.1 561.9,279.5 557.2,281.4 552.7,283.2 548.0,285.2 542.9,287.2 537.4,289.2 531.3,291.3 524.7,293.2 517.9,294.7 511.7,295.9 505.0,296.9 497.9,297.7 490.5,298.0 482.9,297.9 475.4,297.3 468.2,296.4 461.3,295.0 454.7,293.5 448.4,291.7 442.4,289.7 436.7,287.7 430.7,285.3 424.9,282.8 419.5,280.1 414.3,277.5 409.3,274.8 404.5,272.1 399.8,269.3 395.2,266.5 390.8,263.7 386.0,260.7 381.3,257.5 376.7,254.2 372.4,251.0 368.1,247.8 364.0,244.7 360.0,241.5 356.1,238.4 352.3,235.3" fill="#e8a33d" stroke="#a9701d" stroke-width="1.5" opacity="0.92"/>
<polygon points="1183.7,400.4 1187.8,402.9 1191.9,405.3 1196.0,407.8 1200.0,410.3 1204.1,412.7 1208.2,415.2 1212.3,417.7 1216.4,420.3 1220.5,422.8 1224.6,425.4 1228.7,428.0 1232.8,430.6 1236.9,433.2 1241.0,435.9 1245.2,438.7 1249.3,441.5 1253.5,444.4 1257.7,447.4 1262.0,450.5 1266.3,454.0 1271.0,457.8 1276.2,462.8 1282.4,470.4 1288.4,483.4 1289.9,493.1 1325.2,490.0 1322.6,474.2 1311.7,450.7 1301.7,438.3 1294.4,431.3 1288.5,426.4 1283.3,422.3 1278.5,418.7 1273.8,415.4 1269.3,412.3 1264.9,409.3 1260.5,406.4 1256.2,403.6 1251.9,400.8 1247.7,398.1 1243.5,395.4 1239.2,392.8 1235.1,390.2 1230.9,387.6 1226.7,385.0 1222.5,382.5 1218.4,380.0 1214.2,377.5 1210.1,375.0 1205.9,372.5 1201.8,370.0" fill="#e8a33d" stroke="#a9701d" stroke-width="1.5" opacity="0.92"/>
<polygon points="328.3,548.0 323.4,545.7 318.4,543.6 313.4,541.8 308.5,540.1 303.4,538.6 298.2,537.2 292.7,536.1 287.0,535.2 281.2,534.7 275.2,534.6 269.3,535.0 263.8,535.7 258.5,536.6 253.4,537.7 248.6,538.8 243.9,539.9 239.3,541.0 234.5,542.2 229.6,543.6 224.8,545.0 220.0,546.4 215.2,548.0 210.5,549.7 205.7,551.5 201.3,553.2 196.7,555.0 192.0,557.0 187.1,559.2 182.2,561.7 177.2,564.7 172.4,567.9 167.9,571.3 163.6,575.0 159.6,578.8 155.9,582.8 152.3,586.8 149.0,590.9 145.8,595.0 142.8,599.3 139.8,603.7 137.0,608.3 134.3,613.1 131.9,618.1 129.6,623.5 127.8,628.8 126.2,634.1 124.9,639.4 123.9,644.7 123.1,649.9 122.4,655.2 122.0,660.6 121.7,666.1 121.8,671.6 122.1,677.1 122.7,682.6 123.6,688.3 124.9,694.0 126.6,699.7 129.0,705.5 131.9,711.1 135.4,716.5 139.7,721.7 144.7,726.4 149.5,730.0 154.6,733.3 160.0,736.1 166.0,738.6 172.9,740.5 179.6,741.3 185.8,741.4 186.5,770.9 177.7,770.8 167.2,769.4 156.3,766.5 147.4,762.8 139.7,758.7 132.7,754.3 125.9,749.1 118.3,742.0 111.5,733.8 106.3,725.8 102.1,717.7 98.8,709.5 96.4,701.5 94.6,693.9 93.4,686.5 92.7,679.4 92.3,672.5 92.2,665.6 92.5,658.8 93.1,652.0 93.9,645.8 94.9,639.5 96.1,633.1 97.7,626.6 99.7,619.9 102.1,612.9 105.0,605.9 108.2,599.4 111.6,593.4 115.0,587.8 118.5,582.5 122.1,577.5 125.9,572.6 129.8,567.8 134.0,562.9 138.7,558.0 143.8,553.1 149.3,548.4 155.1,544.0 161.4,539.7 168.1,535.8 174.4,532.6 180.2,530.0 185.6,527.7 190.5,525.7 195.1,523.9 200.4,522.0 205.7,520.1 211.0,518.3 216.3,516.7 221.7,515.1 227.0,513.7 232.4,512.4 236.8,511.3 241.7,510.1 247.1,508.8 252.9,507.6 259.4,506.5 266.5,505.6 274.5,505.1 282.8,505.3 290.5,505.9 297.9,507.0 304.9,508.5 311.4,510.2 317.5,512.0 323.3,514.0 329.2,516.2 335.2,518.7 341.3,521.5" fill="#e8a33d" stroke="#a9701d" stroke-width="1.5" opacity="0.92"/>
<polygon points="1716.4,653.8 1720.6,651.5 1724.7,649.2 1728.9,646.8 1733.1,644.5 1737.2,642.1 1741.4,639.7 1745.5,637.4 1749.6,635.0 1753.7,632.7 1757.8,630.3 1761.9,628.0 1766.0,625.6 1770.1,623.1 1774.3,620.7 1778.4,618.2 1782.6,615.7 1786.8,613.0 1791.0,610.3 1795.2,607.5 1799.4,604.5 1803.7,601.2 1808.0,597.6 1811.9,593.9 1815.8,590.0 1820.0,585.1 1838.8,599.3 1833.0,606.1 1828.3,610.9 1823.7,615.2 1818.4,619.7 1813.4,623.5 1808.6,626.9 1804.0,630.0 1799.5,632.9 1795.0,635.7 1790.7,638.4 1786.4,641.0 1782.1,643.5 1777.9,646.0 1773.7,648.4 1769.5,650.8 1765.4,653.1 1761.4,655.5 1757.3,657.8 1753.2,660.2 1748.9,662.6 1744.7,665.1 1740.4,667.4 1736.2,669.8 1731.9,672.1 1727.7,674.5" fill="#e8a33d" stroke="#a9701d" stroke-width="1.5" opacity="0.92"/>
<polygon points="1737.5,525.1 1732.7,520.0 1728.9,514.7 1725.8,509.4 1723.2,504.1 1721.0,498.7 1719.2,493.3 1717.7,487.5 1716.7,481.6 1716.1,475.8 1715.9,469.9 1716.1,464.2 1716.5,458.8 1717.2,453.4 1718.2,447.9 1719.6,442.2 1721.5,436.3 1724.3,430.0 1728.2,424.0 1732.5,418.9 1737.1,414.5 1741.8,410.7 1746.6,407.5 1751.9,404.4 1758.0,401.6 1764.3,399.6 1770.5,398.4 1777.1,397.8 1782.9,397.8 1788.3,398.1 1793.4,398.5 1798.3,399.0 1803.1,399.5 1807.7,400.1 1812.3,400.6 1816.7,401.0 1819.2,371.6 1815.3,371.2 1811.0,370.8 1806.4,370.2 1801.5,369.7 1796.1,369.1 1790.3,368.7 1783.9,368.3 1776.1,368.3 1766.0,369.2 1757.1,371.0 1747.5,374.0 1738.2,378.2 1730.7,382.6 1724.3,387.0 1717.7,392.2 1711.1,398.6 1704.5,406.4 1698.4,416.0 1693.9,425.9 1691.1,434.3 1689.3,441.9 1688.1,448.9 1687.2,455.7 1686.6,462.3 1686.4,469.9 1686.6,477.7 1687.5,485.7 1688.9,493.8 1690.9,501.7 1693.3,508.8 1696.2,515.9 1699.7,523.2 1704.1,530.8 1709.8,538.6 1717.4,546.7" fill="#e8a33d" stroke="#a9701d" stroke-width="1.5" opacity="0.92"/>
<polygon points="611.6,776.8 616.4,776.5 621.1,776.1 625.9,775.8 630.6,775.4 635.4,775.0 640.1,774.7 644.8,774.3 649.5,773.9 654.2,773.6 658.9,773.2 663.5,772.9 668.2,772.5 672.9,772.2 677.6,771.8 682.2,771.5 686.8,771.2 691.5,770.9 696.1,770.6 697.8,798.9 693.3,799.2 688.7,799.5 684.1,799.8 679.5,800.1 674.9,800.4 670.3,800.8 665.7,801.1 661.0,801.5 656.3,801.8 651.7,802.2 647.0,802.5 642.3,802.9 637.5,803.3 632.8,803.6 628.0,804.0 623.2,804.4 618.4,804.7 613.6,805.0" fill="#e8a33d" stroke="#a9701d" stroke-width="1.5" opacity="0.92"/>
<polygon points="1175.2,418.8 1228.6,509.3 1184.8,535.0 1131.5,444.5" fill="#9aa0a6" stroke="#6b7076" stroke-width="1.5"/>
<polygon points="1179.7,620.4 1233.1,544.0 1264.0,565.6 1210.6,642.0" fill="#9aa0a6" stroke="#6b7076" stroke-width="1.5"/>
<polygon points="1194.0,543.7 1161.9,593.2 1151.0,586.1 1183.1,536.7" fill="#9aa0a6" stroke="#6b7076" stroke-width="1.5"/>
<polygon points="1158.4,599.6 1175.1,659.9 1159.2,664.3 1142.5,604.1" fill="#9aa0a6" stroke="#6b7076" stroke-width="1.5"/>
<polygon points="1030.7,767.8 1132.1,768.6 1131.9,796.9 1030.5,796.2" fill="#9aa0a6" stroke="#6b7076" stroke-width="1.5"/>
<polygon points="1077.7,754.1 1038.0,765.6 1030.1,738.3 1069.8,726.9" fill="#9aa0a6" stroke="#6b7076" stroke-width="1.5"/>
<polygon points="806.4,675.6 760.3,646.8 771.6,628.8 817.6,657.6" fill="#9aa0a6" stroke="#6b7076" stroke-width="1.5"/>
<polygon points="731.4,629.6 684.4,600.2 695.7,582.2 742.7,611.6" fill="#9aa0a6" stroke="#6b7076" stroke-width="1.5"/>
<polygon points="818.6,833.3 542.9,664.4 703.2,402.8 978.9,571.7" fill="#9aa0a6" stroke="#6b7076" stroke-width="1.5"/>
<line x1="872.6" y1="231.3" x2="860.3" y2="251.4" stroke="#ffffff" stroke-width="5"/>
<polygon points="881.5,250.6 858.0,243.8 864.8,232.8" fill="#ffffff" opacity="0.8"/>
<polygon points="1261.4,513.5 1253.8,490.2 1266.7,489.6" fill="#ffffff" opacity="0.8"/>
<polygon points="944.0,764.9 968.4,762.4 966.2,775.2" fill="#ffffff" opacity="0.8"/>
<polygon points="524.5,591.6 544.0,576.8 548.9,588.8" fill="#ffffff" opacity="0.8"/>
<polygon points="138.1,650.7 139.1,626.2 151.5,630.2" fill="#ffffff" opacity="0.8"/>
<polygon points="552.1,753.9 529.0,761.9 528.1,749.0" fill="#ffffff" opacity="0.8"/>
<polygon points="1010.2,825.9 985.8,825.3 989.5,812.9" fill="#ffffff" opacity="0.8"/>
<polygon points="1466.0,746.5 1446.0,760.7 1441.6,748.5" fill="#ffffff" opacity="0.8"/>
<polygon points="1753.1,517.0 1776.6,524.0 1769.7,535.0" fill="#ffffff" opacity="0.8"/>
<polygon points="1899.8,196.2 1913.9,216.2 1901.7,220.6" fill="#ffffff" opacity="0.8"/>
<polygon points="1421.4,182.1 1445.2,176.4 1444.8,189.4" fill="#ffffff" opacity="0.8"/>
<polygon points="949.6,165.3 973.5,159.9 972.9,172.9" fill="#ffffff" opacity="0.8"/>
<polygon points="478.3,140.1 502.1,134.7 501.6,147.6" fill="#ffffff" opacity="0.8"/>
<polygon points="633.0,196.3 613.3,210.9 608.6,198.8" fill="#ffffff" opacity="0.8"/>
<line x1="1241.9" y1="484.3" x2="1127.8" y2="625.7" stroke="#1a1a1a" stroke-width="1.2" opacity="0.5"/>
<circle cx="1127.8" cy="625.7" r="14" fill="#ffffff" stroke="#1a1a1a" stroke-width="1.8"/>
<text x="1127.8" y="630.7" font-size="15" font-weight="bold" fill="#1a1a1a" text-anchor="middle">1</text>
<line x1="1176.2" y1="569.9" x2="1137.8" y2="549.1" stroke="#1a1a1a" stroke-width="1.2" opacity="0.5"/>
<circle cx="1137.8" cy="549.1" r="14" fill="#ffffff" stroke="#1a1a1a" stroke-width="1.8"/>
<text x="1137.8" y="554.1" font-size="15" font-weight="bold" fill="#1a1a1a" text-anchor="middle">2</text>
<line x1="1168.2" y1="682.7" x2="1136.9" y2="672.1" stroke="#1a1a1a" stroke-width="1.2" opacity="0.5"/>
<circle cx="1136.9" cy="672.1" r="14" fill="#ffffff" stroke="#1a1a1a" stroke-width="1.8"/>
<text x="1136.9" y="677.1" font-size="15" font-weight="bold" fill="#1a1a1a" text-anchor="middle">3</text>
<line x1="592.3" y1="566.1" x2="605.9" y2="374.3" stroke="#1a1a1a" stroke-width="1.2" opacity="0.5"/>
<circle cx="605.9" cy="374.3" r="14" fill="#ffffff" stroke="#1a1a1a" stroke-width="1.8"/>
<text x="605.9" y="379.3" font-size="15" font-weight="bold" fill="#1a1a1a" text-anchor="middle">4</text>
<line x1="442.0" y1="626.2" x2="440.9" y2="593.2" stroke="#1a1a1a" stroke-width="1.2" opacity="0.5"/>
<circle cx="440.9" cy="593.2" r="14" fill="#ffffff" stroke="#1a1a1a" stroke-width="1.8"/>
<text x="440.9" y="598.2" font-size="15" font-weight="bold" fill="#1a1a1a" text-anchor="middle">5</text>
<line x1="301.5" y1="545.4" x2="319.0" y2="482.9" stroke="#1a1a1a" stroke-width="1.2" opacity="0.5"/>
<circle cx="319.0" cy="482.9" r="14" fill="#ffffff" stroke="#1a1a1a" stroke-width="1.8"/>
<text x="319.0" y="487.9" font-size="15" font-weight="bold" fill="#1a1a1a" text-anchor="middle">6</text>
<line x1="145.8" y1="607.5" x2="91.1" y2="572.6" stroke="#1a1a1a" stroke-width="1.2" opacity="0.5"/>
<circle cx="91.1" cy="572.6" r="14" fill="#ffffff" stroke="#1a1a1a" stroke-width="1.8"/>
<text x="91.1" y="577.6" font-size="15" font-weight="bold" fill="#1a1a1a" text-anchor="middle">7</text>
<line x1="163.1" y1="729.7" x2="135.5" y2="788.5" stroke="#1a1a1a" stroke-width="1.2" opacity="0.5"/>
<circle cx="135.5" cy="788.5" r="14" fill="#ffffff" stroke="#1a1a1a" stroke-width="1.8"/>
<text x="135.5" y="793.5" font-size="15" font-weight="bold" fill="#1a1a1a" text-anchor="middle">8</text>
<line x1="777.3" y1="755.7" x2="761.5" y2="829.6" stroke="#1a1a1a" stroke-width="1.2" opacity="0.5"/>
<circle cx="761.5" cy="829.6" r="14" fill="#ffffff" stroke="#1a1a1a" stroke-width="1.8"/>
<text x="761.5" y="834.6" font-size="15" font-weight="bold" fill="#1a1a1a" text-anchor="middle">9</text>
<line x1="1094.6" y1="848.7" x2="1092.0" y2="881.7" stroke="#1a1a1a" stroke-width="1.2" opacity="0.5"/>
<circle cx="1092.0" cy="881.7" r="14" fill="#ffffff" stroke="#1a1a1a" stroke-width="1.8"/>
<text x="1092.0" y="886.7" font-size="15" font-weight="bold" fill="#1a1a1a" text-anchor="middle">10</text>
<line x1="1803.3" y1="592.3" x2="1846.3" y2="640.9" stroke="#1a1a1a" stroke-width="1.2" opacity="0.5"/>
<circle cx="1846.3" cy="640.9" r="14" fill="#ffffff" stroke="#1a1a1a" stroke-width="1.8"/>
<text x="1846.3" y="645.9" font-size="15" font-weight="bold" fill="#1a1a1a" text-anchor="middle">11</text>
<line x1="1742.0" y1="474.0" x2="1774.9" y2="471.8" stroke="#1a1a1a" stroke-width="1.2" opacity="0.5"/>
<circle cx="1774.9" cy="471.8" r="14" fill="#ffffff" stroke="#1a1a1a" stroke-width="1.8"/>
<text x="1774.9" y="476.8" font-size="15" font-weight="bold" fill="#1a1a1a" text-anchor="middle">12</text>
<line x1="1861.4" y1="421.4" x2="1876.3" y2="450.9" stroke="#1a1a1a" stroke-width="1.2" opacity="0.5"/>
<circle cx="1876.3" cy="450.9" r="14" fill="#ffffff" stroke="#1a1a1a" stroke-width="1.8"/>
<text x="1876.3" y="455.9" font-size="15" font-weight="bold" fill="#1a1a1a" text-anchor="middle">13</text>
<line x1="1921.8" y1="340.3" x2="1954.4" y2="345.8" stroke="#1a1a1a" stroke-width="1.2" opacity="0.5"/>
<circle cx="1954.4" cy="345.8" r="14" fill="#ffffff" stroke="#1a1a1a" stroke-width="1.8"/>
<text x="1954.4" y="350.8" font-size="15" font-weight="bold" fill="#1a1a1a" text-anchor="middle">14</text>
<line x1="1902.7" y1="314.6" x2="1940.2" y2="214.1" stroke="#1a1a1a" stroke-width="1.2" opacity="0.5"/>
<circle cx="1940.2" cy="214.1" r="14" fill="#ffffff" stroke="#1a1a1a" stroke-width="1.8"/>
<text x="1940.2" y="219.1" font-size="15" font-weight="bold" fill="#1a1a1a" text-anchor="middle">15</text>
<line x1="1916.1" y1="216.7" x2="1980.7" y2="211.3" stroke="#1a1a1a" stroke-width="1.2" opacity="0.5"/>
<circle cx="1980.7" cy="211.3" r="14" fill="#ffffff" stroke="#1a1a1a" stroke-width="1.8"/>
<text x="1980.7" y="216.3" font-size="15" font-weight="bold" fill="#1a1a1a" text-anchor="middle">16</text>
<line x1="349.3" y1="135.6" x2="329.4" y2="109.3" stroke="#1a1a1a" stroke-width="1.2" opacity="0.5"/>
<circle cx="329.4" cy="109.3" r="14" fill="#ffffff" stroke="#1a1a1a" stroke-width="1.8"/>
<text x="329.4" y="114.3" font-size="15" font-weight="bold" fill="#1a1a1a" text-anchor="middle">17</text>
<line x1="459.1" y1="256.7" x2="440.2" y2="318.8" stroke="#1a1a1a" stroke-width="1.2" opacity="0.5"/>
<circle cx="440.2" cy="318.8" r="14" fill="#ffffff" stroke="#1a1a1a" stroke-width="1.8"/>
<text x="440.2" y="323.8" font-size="15" font-weight="bold" fill="#1a1a1a" text-anchor="middle">18</text>
<line x1="704.4" y1="195.1" x2="705.5" y2="228.1" stroke="#1a1a1a" stroke-width="1.2" opacity="0.5"/>
<circle cx="705.5" cy="228.1" r="14" fill="#ffffff" stroke="#1a1a1a" stroke-width="1.8"/>
<text x="705.5" y="233.1" font-size="15" font-weight="bold" fill="#1a1a1a" text-anchor="middle">19</text>
<line x1="861.5" y1="249.4" x2="811.6" y2="330.9" stroke="#1a1a1a" stroke-width="1.2" opacity="0.5"/>
<rect x="750.4" y="312.9" width="122.4" height="24.0" rx="3" fill="#f7f6f3" opacity="0.82"/><text x="811.6" y="330.9" font-size="16" font-weight="bold" fill="#1a1a1a" text-anchor="middle">СТАРТ / ФИНИШ</text>
<line x1="1004.5" y1="261.8" x2="1034.9" y2="214.0" stroke="#a9701d" stroke-width="1.2" opacity="0.55"/>
<rect x="978.1" y="196.0" width="113.6" height="24.0" rx="3" fill="#f7f6f3" opacity="0.82"/><text x="1034.9" y="214.0" font-size="16" font-weight="bold" fill="#8a5a10" text-anchor="middle">Start/Finish</text>
<rect x="518.2" y="295.6" width="69.6" height="24.0" rx="3" fill="#f7f6f3" opacity="0.82"/><text x="553.0" y="313.6" font-size="16" font-weight="bold" fill="#8a5a10" text-anchor="middle">Turn 18</text>
<line x1="1251.9" y1="400.8" x2="1272.3" y2="369.0" stroke="#a9701d" stroke-width="1.2" opacity="0.55"/>
<rect x="1241.9" y="351.0" width="60.8" height="24.0" rx="3" fill="#f7f6f3" opacity="0.82"/><text x="1272.3" y="369.0" font-size="16" font-weight="bold" fill="#8a5a10" text-anchor="middle">Turn 1</text>
<line x1="134.0" y1="562.9" x2="106.2" y2="537.5" stroke="#a9701d" stroke-width="1.2" opacity="0.55"/>
<rect x="75.8" y="519.5" width="60.8" height="24.0" rx="3" fill="#f7f6f3" opacity="0.82"/><text x="106.2" y="537.5" font-size="16" font-weight="bold" fill="#8a5a10" text-anchor="middle">Marina</text>
<line x1="1777.9" y1="646.0" x2="1801.6" y2="686.8" stroke="#a9701d" stroke-width="1.2" opacity="0.55"/>
<rect x="1749.2" y="668.8" width="104.8" height="24.0" rx="3" fill="#f7f6f3" opacity="0.82"/><text x="1801.6" y="686.8" font-size="16" font-weight="bold" fill="#8a5a10" text-anchor="middle">Beach South</text>
<line x1="1698.4" y1="416.0" x2="1640.3" y2="384.5" stroke="#a9701d" stroke-width="1.2" opacity="0.55"/>
<rect x="1587.9" y="366.5" width="104.8" height="24.0" rx="3" fill="#f7f6f3" opacity="0.82"/><text x="1640.3" y="384.5" font-size="16" font-weight="bold" fill="#8a5a10" text-anchor="middle">Beach North</text>
<rect x="597.3" y="812.1" width="122.4" height="24.0" rx="3" fill="#f7f6f3" opacity="0.82"/><text x="658.5" y="830.1" font-size="16" font-weight="bold" fill="#8a5a10" text-anchor="middle">Fountain View</text>
<line x1="881.8" y1="318.3" x2="847.6" y2="372.1" stroke="#6b7076" stroke-width="1" opacity="0.5"/>
<rect x="793.5" y="357.8" width="108.1" height="20.3" rx="3" fill="#f7f6f3" opacity="0.82"/><text x="847.6" y="372.1" font-size="13" font-weight="normal" fill="#5f6368" text-anchor="middle">боксы и паддок</text>
<line x1="1158.2" y1="489.8" x2="1030.1" y2="565.2" stroke="#6b7076" stroke-width="1" opacity="0.5"/>
<rect x="972.5" y="551.0" width="115.3" height="20.3" rx="3" fill="#f7f6f3" opacity="0.82"/><text x="1030.1" y="565.2" font-size="13" font-weight="normal" fill="#5f6368" text-anchor="middle">Vista at Turn 1</text>
<line x1="1237.3" y1="603.8" x2="1312.7" y2="656.6" stroke="#6b7076" stroke-width="1" opacity="0.5"/>
<rect x="1233.7" y="642.3" width="158.2" height="20.3" rx="3" fill="#f7f6f3" opacity="0.82"/><text x="1312.7" y="656.6" font-size="13" font-weight="normal" fill="#5f6368" text-anchor="middle">Villas at East Campus</text>
<line x1="1167.0" y1="561.4" x2="1042.3" y2="480.4" stroke="#6b7076" stroke-width="1" opacity="0.5"/>
<rect x="956.1" y="466.2" width="172.5" height="20.3" rx="3" fill="#f7f6f3" opacity="0.82"/><text x="1042.3" y="480.4" font-size="13" font-weight="normal" fill="#5f6368" text-anchor="middle">Villas at Sunrise Key A</text>
<line x1="1150.8" y1="634.2" x2="1007.5" y2="673.9" stroke="#6b7076" stroke-width="1" opacity="0.5"/>
<rect x="921.3" y="659.7" width="172.5" height="20.3" rx="3" fill="#f7f6f3" opacity="0.82"/><text x="1007.5" y="673.9" font-size="13" font-weight="normal" fill="#5f6368" text-anchor="middle">Villas at Sunrise Key B</text>
<line x1="1081.2" y1="796.5" x2="1080.3" y2="916.9" stroke="#6b7076" stroke-width="1" opacity="0.5"/>
<rect x="1033.4" y="902.6" width="93.8" height="20.3" rx="3" fill="#f7f6f3" opacity="0.82"/><text x="1080.3" y="916.9" font-size="13" font-weight="normal" fill="#5f6368" text-anchor="middle">Veranda Club</text>
<line x1="1050.0" y1="732.6" x2="1008.9" y2="589.7" stroke="#6b7076" stroke-width="1" opacity="0.5"/>
<rect x="954.9" y="575.5" width="108.1" height="20.3" rx="3" fill="#f7f6f3" opacity="0.82"/><text x="1008.9" y="589.7" font-size="13" font-weight="normal" fill="#5f6368" text-anchor="middle">Concourse Club</text>
<line x1="794.6" y1="643.2" x2="873.4" y2="517.1" stroke="#6b7076" stroke-width="1" opacity="0.5"/>
<rect x="830.0" y="502.8" width="86.7" height="20.3" rx="3" fill="#f7f6f3" opacity="0.82"/><text x="873.4" y="517.1" font-size="13" font-weight="normal" fill="#5f6368" text-anchor="middle">The 72 Club</text>
<line x1="719.2" y1="596.9" x2="798.0" y2="470.9" stroke="#6b7076" stroke-width="1" opacity="0.5"/>
<rect x="747.6" y="456.6" width="101.0" height="20.3" rx="3" fill="#f7f6f3" opacity="0.82"/><text x="798.0" y="470.9" font-size="13" font-weight="normal" fill="#5f6368" text-anchor="middle">The Palm Club</text>
<rect x="766.9" y="470.5" width="148.3" height="22.8" rx="3" fill="#f7f6f3" opacity="0.82"/><text x="841.0" y="487.2" font-size="15" font-weight="normal" fill="#4a5056" text-anchor="middle">Hard Rock Stadium</text>
<g transform="translate(1981,80)"><line x1="0" y1="26" x2="0" y2="-20" stroke="#1a1a1a" stroke-width="2"/><polygon points="0,-28 -7,-12 7,-12" fill="#1a1a1a"/><text x="0" y="46" font-size="15" text-anchor="middle" fill="#1a1a1a">С</text></g>
<line x1="130" y1="939" x2="366" y2="939" stroke="#1a1a1a" stroke-width="2"/>
<line x1="130" y1="933" x2="130" y2="945" stroke="#1a1a1a" stroke-width="2"/>
<line x1="366" y1="933" x2="366" y2="945" stroke="#1a1a1a" stroke-width="2"/>
<text x="248" y="929" font-size="14" text-anchor="middle" fill="#1a1a1a">200 м</text>
<text x="130" y="48" font-size="28" font-weight="bold" fill="#1a1a1a">Майами — схема трассы в APEX '26</text>
<text x="130" y="74" font-size="15" fill="#5f6368">север сверху · круг 5424 м · полотно 14 м · направление ПРОТИВ часовой стрелки · номера поворотов по официальным данным F1</text>
<line x1="130" y1="989" x2="1921" y2="989" stroke="#d6d1c7" stroke-width="1"/>
<text x="130" y="1019" font-size="17" font-weight="bold" fill="#1a1a1a">Повороты — S по нашей осевой, от линии старта</text>
<text x="130" y="1045" font-size="14" fill="#3c4043">T1 · 378 м · правый · R 22 м</text>
<text x="390" y="1045" font-size="14" fill="#3c4043">T2 · 496 м · левый · R 38 м</text>
<text x="130" y="1065" font-size="14" fill="#3c4043">T3 · 590 м · правый · R 60 м</text>
<text x="390" y="1065" font-size="14" fill="#3c4043">T4 · 1157 м · левый · R 56 м</text>
<text x="130" y="1085" font-size="14" fill="#3c4043">T5 · 1295 м · правый · R 53 м</text>
<text x="390" y="1085" font-size="14" fill="#3c4043">T6 · 1440 м · левый · R 65 м</text>
<text x="130" y="1105" font-size="14" fill="#3c4043">T7 · 1578 м · левый · R 77 м</text>
<text x="390" y="1105" font-size="14" fill="#3c4043">T8 · 1682 м · левый · R 39 м</text>
<text x="130" y="1125" font-size="14" fill="#3c4043">T9 · 2209 м · правый · R 111 м</text>
<text x="390" y="1125" font-size="14" fill="#3c4043">T10 · 2489 м · левый · R 390 м</text>
<text x="130" y="1145" font-size="14" fill="#3c4043">T11 · 3129 м · левый · R 18 м</text>
<text x="390" y="1145" font-size="14" fill="#3c4043">T12 · 3257 м · правый · R 46 м</text>
<text x="130" y="1165" font-size="14" fill="#3c4043">T13 · 3395 м · левый · R 43 м</text>
<text x="390" y="1165" font-size="14" fill="#3c4043">T14 · 3477 м · левый · R 16 м</text>
<text x="130" y="1185" font-size="14" fill="#3c4043">T15 · 3497 м · правый · R 16 м</text>
<text x="390" y="1185" font-size="14" fill="#3c4043">T16 · 3596 м · левый · R 18 м</text>
<text x="130" y="1205" font-size="14" fill="#3c4043">T17 · 4921 м · левый · R 17 м</text>
<text x="390" y="1205" font-size="14" fill="#3c4043">T18 · 5061 м · левый · R 72 м</text>
<text x="130" y="1225" font-size="14" fill="#3c4043">T19 · 5275 м · правый · R 189 м</text>
<text x="130" y="1255" font-size="13" fill="#5f6368">Официальные дистанции F1 меряются по гоночной ЛИНИИ и потому</text>
<text x="130" y="1273" font-size="13" fill="#5f6368">к концу круга на ~65 м меньше наших (у нас S идёт по осевой).</text>
<text x="700" y="1019" font-size="17" font-weight="bold" fill="#1a1a1a">Трибуны (7) — оранжевым</text>
<text x="700" y="1045" font-size="14" fill="#3c4043">Start/Finish · слева по ходу, внутри круга · S 0–216 м</text>
<text x="700" y="1065" font-size="14" fill="#3c4043">Turn 18 · справа по ходу, снаружи · S 4980–5252 м</text>
<text x="700" y="1085" font-size="14" fill="#3c4043">Turn 1 · слева по ходу, внутри круга · S 300–400 м</text>
<text x="700" y="1105" font-size="14" fill="#3c4043">Marina · справа по ходу, снаружи · S 1420–1700 м</text>
<text x="700" y="1125" font-size="14" fill="#3c4043">Beach South · справа по ходу, снаружи · S 3040–3140 м</text>
<text x="700" y="1145" font-size="14" fill="#3c4043">Beach North · слева по ходу, внутри круга · S 3220–3360 м</text>
<text x="700" y="1165" font-size="14" fill="#3c4043">Fountain View · справа по ходу, снаружи · S 2064–2136 м</text>
<text x="700" y="1203" font-size="13" fill="#5f6368">Start/Finish и Turn 18 обмерены по снимку (они единственные, что</text>
<text x="700" y="1221" font-size="13" fill="#5f6368">стояли в момент съёмки). Turn 1, Marina, Beach North и Beach South</text>
<text x="700" y="1239" font-size="13" fill="#5f6368">посажены по официальной схеме и описаниям вида — это ОЦЕНКА,</text>
<text x="700" y="1257" font-size="13" fill="#5f6368">проверить её может только заезд на устройстве.</text>
<text x="1310" y="1019" font-size="17" font-weight="bold" fill="#1a1a1a">Что ещё на схеме</text>
<text x="1310" y="1045" font-size="13" fill="#3c4043">Серым — то, что построено коробками: боксы и паддок через линию</text>
<text x="1310" y="1064" font-size="13" fill="#3c4043">старта, Hard Rock Stadium (274 × 260 м, контур из OSM) и восемь</text>
<text x="1310" y="1083" font-size="13" fill="#3c4043">гостевых зданий — клубы, ложи и виллы вдоль трассы. Трибунами</text>
<text x="1310" y="1102" font-size="13" fill="#3c4043">их не называют, но смотрят гонку и с них.</text>
<text x="1310" y="1121" font-size="13" fill="#3c4043"></text>
<text x="1310" y="1140" font-size="13" fill="#3c4043">Стадион стоит СНАРУЖИ петли: проверка точкой говорит, что его</text>
<text x="1310" y="1159" font-size="13" fill="#3c4043">центр вне контура, а точка в 30 м СЛЕВА от стартовой прямой —</text>
<text x="1310" y="1178" font-size="13" fill="#3c4043">внутри. Значит на главной прямой внутренняя сторона ЛЕВАЯ,</text>
<text x="1310" y="1197" font-size="13" fill="#3c4043">а паддок, боксы и стадион остаются снаружи.</text>
<text x="1310" y="1216" font-size="13" fill="#3c4043"></text>
<text x="1310" y="1235" font-size="13" fill="#3c4043">Барьер и зоны вылета у Майами пока ОБОБЩЁННЫЕ: снимков трассы</text>
<text x="1310" y="1254" font-size="13" fill="#3c4043">в гоночной конфигурации не существует, мерить их нечем.</text>
<text x="1310" y="1273" font-size="13" fill="#3c4043"></text>
<text x="1310" y="1292" font-size="13" fill="#3c4043">Карта в географической ориентации — мир игры отражён по X,</text>
<text x="1310" y="1311" font-size="13" fill="#3c4043">здесь отражение снято, поэтому её можно класть рядом</text>
<text x="1310" y="1330" font-size="13" fill="#3c4043">с официальной схемой гонки.</text>
</svg>